<svg xmlns="http://www.w3.org/2000/svg" xmlns:xlink="http://www.w3.org/1999/xlink" width="272.01" height="87.807" viewBox="0 0 272.01 87.807">
  <defs>
    <radialGradient id="radial-gradient" cx="0.5" cy="0.79" r="0.5" gradientUnits="objectBoundingBox">
      <stop offset="0" stop-color="#fa4f8a"/>
      <stop offset="0.475" stop-color="#fa4f8a"/>
      <stop offset="0.934" stop-color="#fa4f8a"/>
      <stop offset="1" stop-color="#fa4f8a"/>
    </radialGradient>
    <filter id="Tracé_2" x="0" y="0" width="272.01" height="87.807" filterUnits="userSpaceOnUse">
      <feOffset dy="1" input="SourceAlpha"/>
      <feGaussianBlur result="blur"/>
      <feFlood flood-opacity="0.161"/>
      <feComposite operator="in" in2="blur"/>
      <feComposite in="SourceGraphic"/>
    </filter>
  </defs>
  <g id="Groupe_41" data-name="Groupe 41" transform="translate(-35.869 -138.838)">
    <g transform="matrix(1, 0, 0, 1, 35.87, 138.84)" filter="url(#Tracé_2)">
      <g id="Tracé_2-2" data-name="Tracé 2" transform="translate(10.78 4.16)" fill="url(#radial-gradient)">
        <path d="M 129.7962493896484 81.64533996582031 C 100.6070251464844 81.64533996582031 72.12940979003906 81.11922454833984 49.60937118530273 80.16391754150391 C 25.34121513366699 79.13446044921875 9.76148509979248 77.65776824951172 5.74021577835083 76.00580596923828 C 3.45094633102417 75.06538391113281 1.247561812400818 73.04876708984375 -0.8087074756622314 70.01199340820312 C -2.802245855331421 67.06787872314453 -4.549630641937256 63.33115005493164 -6.002322673797607 58.90561294555664 C -8.924283981323242 50.00407409667969 -10.24770736694336 39.48461151123047 -9.633284568786621 30.04449653625488 C -9.181745529174805 23.10676574707031 -7.68247652053833 17.03399658203125 -5.297553539276123 12.48272705078125 C -2.65324592590332 7.436380386352539 1.018984794616699 4.257996082305908 5.617100238800049 3.035841941833496 C 12.07590770721436 1.319072723388672 29.60737037658691 -0.2650041580200195 54.98210144042969 -1.424696445465088 C 79.49321746826172 -2.544888734817505 108.6170654296875 -3.161811828613281 136.9888000488281 -3.161811828613281 C 162.3193359375 -3.161811828613281 185.1929779052734 -2.660311937332153 203.1368713378906 -1.71154260635376 C 212.9114837646484 -1.194696426391602 221.217529296875 -0.5457733869552612 227.8242492675781 0.2172650694847107 C 234.8364868164062 1.027072787284851 239.9765167236328 1.969226598739624 243.1015167236328 3.017457485198975 C 248.4735565185547 4.819418907165527 252.6829528808594 8.405226707458496 255.61279296875 13.67522621154785 C 256.9552612304688 16.08995819091797 258.024169921875 18.86053466796875 258.789794921875 21.9100341796875 C 259.5179443359375 24.81015014648438 259.9754028320312 27.97338104248047 260.1495361328125 31.31188011169434 C 260.619873046875 40.33107376098633 258.9861145019531 50.45599746704102 255.6671752929688 59.09049606323242 C 254.0658264160156 63.25661087036133 252.0931701660156 66.98018646240234 249.9624786376953 69.85868835449219 C 247.74609375 72.85299682617188 245.4051361083984 74.92626190185547 243.004638671875 76.02095794677734 C 240.2950286865234 77.25657653808594 231.2045288085938 78.99526214599609 203.2851715087891 80.26149749755859 C 183.6080932617188 81.15387725830078 157.5092163085938 81.64533996582031 129.7962493896484 81.64533996582031 Z" stroke="none"/>
        <path d="M 136.9887542724609 -2.161811828613281 C 108.6317138671875 -2.161811828613281 79.52406311035156 -1.545272827148438 55.0277099609375 -0.4257354736328125 C 29.72225952148438 0.7307662963867188 12.26579284667969 2.3033447265625 5.873977661132812 4.002265930175781 C 1.557754516601562 5.149497985839844 -1.902862548828125 8.158882141113281 -4.411773681640625 12.94683837890625 C -6.73236083984375 17.37526321411133 -8.19287109375 23.30999755859375 -8.635406494140625 30.10937881469727 C -9.241851806640625 39.42680358886719 -7.935821533203125 49.8089599609375 -5.052215576171875 58.59368896484375 C -2.183441162109375 67.33322906494141 1.888748168945312 73.34253692626953 6.12017822265625 75.08080291748047 C 7.4722900390625 75.63626861572266 11.10694885253906 76.48583984375 20.7440185546875 77.37907409667969 C 28.13006591796875 78.06361389160156 37.85606384277344 78.66445922851562 49.65182495117188 79.16480255126953 C 72.15829467773438 80.11953735351562 100.6209106445312 80.64533996582031 129.7964782714844 80.64533996582031 C 157.4948272705078 80.64533996582031 183.5775604248047 80.15422821044922 203.239990234375 79.26249694824219 C 232.4628753662109 77.93718719482422 240.437255859375 76.0926513671875 242.5897216796875 75.11107635498047 C 247.0962219238281 73.0560302734375 251.5225677490234 67.08599853515625 254.7337493896484 58.73172760009766 C 258.0041809082031 50.22334289550781 259.6141357421875 40.24814987182617 259.15087890625 31.36391830444336 C 258.9801025390625 28.08988189697266 258.5323181152344 24.99103546142578 257.8198547363281 22.15353393554688 C 257.0754699707031 19.18864822387695 256.038818359375 16.49961090087891 254.7387542724609 14.16110992431641 C 251.9339141845703 9.115997314453125 247.9115600585938 5.685691833496094 242.7834777832031 3.965538024902344 C 236.8115997314453 1.96234130859375 223.0837554931641 0.344573974609375 203.0840606689453 -0.7129287719726562 C 185.1574401855469 -1.660812377929688 162.3020629882812 -2.161811828613281 136.9887542724609 -2.161811828613281 M 136.9887542724609 -4.161819458007812 C 184.8446350097656 -4.161819458007812 230.1916961669922 -2.367721557617188 243.4195251464844 2.069381713867188 C 272.4361267089844 11.8026123046875 261.2470092773438 68.80118560791016 243.4195251464844 76.93080139160156 C 234.8093719482422 80.85715484619141 183.0001678466797 82.64533996582031 129.7964782714844 82.64533996582031 C 72.84103393554688 82.64533996582031 14.28564453125 80.59733581542969 5.360214233398438 76.93080139160156 C -11.9027099609375 69.83922576904297 -20.03692626953125 8.819839477539062 5.360214233398438 2.069381713867188 C 19.17950439453125 -1.603759765625 79.86796569824219 -4.161819458007812 136.9887542724609 -4.161819458007812 Z" stroke="none" fill="#fff"/>
      </g>
    </g>
    <g id="Ellipse_3" data-name="Ellipse 3" transform="translate(50.649 160)" fill="#fff" stroke="#fff" stroke-width="1">
      <ellipse cx="5" cy="5.5" rx="5" ry="5.5" stroke="none"/>
      <ellipse cx="5" cy="5.5" rx="4.5" ry="5" fill="none"/>
    </g>
    <g id="Ellipse_4" data-name="Ellipse 4" transform="translate(62.649 153)" fill="#fff" stroke="#fff" stroke-width="1">
      <circle cx="3.5" cy="3.5" r="3.5" stroke="none"/>
      <circle cx="3.5" cy="3.5" r="3" fill="none"/>
    </g>
    <g id="Tracé_6" data-name="Tracé 6" transform="translate(288.6 216.154) rotate(-173)" fill="#fff">
      <path d="M -3.265500783920288 9.452671051025391 C -3.322690725326538 9.452671051025391 -3.418400764465332 9.452671051025391 -3.50571084022522 9.217350959777832 C -3.693550825119019 8.711121559143066 -3.627190828323364 7.537521362304688 -3.055490732192993 6.056821346282959 C -2.708040714263916 5.15692138671875 -1.899930715560913 3.453421354293823 -0.3915807604789734 2.155351400375366 C 0.6704092621803284 1.241411328315735 2.216269254684448 0.3993413150310516 3.961219310760498 -0.2157486826181412 C 5.495579242706299 -0.7566086649894714 7.07275915145874 -1.079508662223816 8.18018913269043 -1.079508662223816 C 8.854857444763184 -1.079508662223816 9.145009994506836 -0.9565647840499878 9.223203659057617 -0.8933973908424377 C 9.187526702880859 -0.8199335336685181 9.043415069580078 -0.6127414107322693 8.466649055480957 -0.2151786834001541 C 7.934859275817871 0.1513713300228119 7.220569133758545 0.5579313039779663 6.393479347229004 1.028691291809082 C 4.908839225769043 1.873711347579956 3.061149120330811 2.925371408462524 1.625569224357605 4.160821437835693 C 0.06370923668146133 5.504931449890137 -0.8357207775115967 6.837821483612061 -1.49246072769165 7.811061382293701 C -2.240600824356079 8.919741630554199 -2.628490686416626 9.452671051025391 -3.265500783920288 9.452671051025391 Z" stroke="none"/>
      <path d="M 8.11337947845459 -0.5791182518005371 C 5.912491798400879 -0.5536923408508301 2.045395374298096 0.7177815437316895 -0.06543064117431641 2.534331321716309 C -1.162050724029541 3.478071212768555 -2.109160900115967 4.900671005249023 -2.663930892944336 6.437371253967285 C -3.120328903198242 7.701573848724365 -3.136075019836426 8.555091857910156 -3.072193145751953 8.913301467895508 C -2.780436515808105 8.79151439666748 -2.477660655975342 8.377163887023926 -1.906920909881592 7.531381130218506 C -1.234360694885254 6.534691333770752 -0.3132505416870117 5.169681549072266 1.299419403076172 3.781841278076172 C 2.771719217300415 2.514791488647461 4.642749309539795 1.449841499328613 6.146149158477783 0.5941414833068848 C 6.781083106994629 0.232755184173584 7.561832904815674 -0.2116231918334961 8.11337947845459 -0.5791182518005371 M 8.180187225341797 -1.579506397247314 C 8.918956756591797 -1.579506397247314 9.451457977294922 -1.445543766021729 9.650479316711426 -1.162658214569092 C 10.45959854125977 -0.0125885009765625 5.180719375610352 1.760961532592773 1.951719284057617 4.539801597595215 C -1.277280807495117 7.318631172180176 -1.515500545501709 9.952671051025391 -3.265501022338867 9.952671051025391 C -5.015501022338867 9.952671051025391 -3.946721076965332 4.555201530456543 -0.7177309989929199 1.776371479034424 C 1.717026710510254 -0.3189525604248047 5.91548490524292 -1.579506397247314 8.180187225341797 -1.579506397247314 Z" stroke="none" fill="#fff"/>
    </g>
  </g>
</svg>
