<svg xmlns="http://www.w3.org/2000/svg" xmlns:xlink="http://www.w3.org/1999/xlink" width="77.055" height="80.055" viewBox="0 0 77.055 80.055">
  <defs>
    <filter id="Tracé_21" x="0" y="0" width="77.055" height="80.055" filterUnits="userSpaceOnUse">
      <feOffset dy="3" input="SourceAlpha"/>
      <feGaussianBlur result="blur"/>
      <feFlood flood-opacity="0.161"/>
      <feComposite operator="in" in2="blur"/>
      <feComposite in="SourceGraphic"/>
    </filter>
  </defs>
  <g id="Groupe_46" data-name="Groupe 46" transform="translate(-22.121 -307)">
    <g transform="matrix(1, 0, 0, 1, 22.12, 307)" filter="url(#Tracé_21)">
      <g id="Tracé_21-2" data-name="Tracé 21" transform="translate(38.5 3.32) rotate(45)" fill="#fa4f8a">
        <path d="M 23.6313533782959 51.62164306640625 C 22.26554298400879 51.62166213989258 20.84071350097656 51.4759635925293 19.74893379211426 49.73442459106445 C 18.42648315429688 47.62494277954102 18.5358829498291 45.54694366455078 18.90939331054688 41.04782485961914 C 19.23957443237305 37.05423355102539 19.81718444824219 31.0697135925293 19.82297325134277 31.00973320007324 L 19.87856292724609 30.43446350097656 L 19.30128288269043 30.46222305297852 C 19.25007438659668 30.46468353271484 14.11926364898682 30.71160316467285 8.863463401794434 30.98551368713379 C 8.265383720397949 31.01692390441895 7.658893585205078 31.06022453308105 7.07236385345459 31.10210418701172 C 5.95707368850708 31.18172454833984 4.903623580932617 31.25693321228027 3.909063816070557 31.25693321228027 C 2.225873708724976 31.25693321228027 1.066593766212463 31.02754402160645 0.260753720998764 30.53501319885254 C -1.843276262283325 29.24904441833496 -1.837486267089844 27.80706405639648 -1.827896237373352 25.41808319091797 L -1.8270663022995 25.1961841583252 L -1.827816247940063 25.03662300109863 C -1.837336301803589 23.17864418029785 -1.849176287651062 20.86632347106934 0.260753720998764 19.57673454284668 C 1.051223754882812 19.09361457824707 2.174713611602783 18.87816429138184 3.903603792190552 18.87816429138184 C 4.868133544921875 18.87816429138184 5.931393623352051 18.94352340698242 7.057073593139648 19.01273345947266 C 7.732293605804443 19.05424308776855 8.430493354797363 19.09716415405273 9.146344184875488 19.12844467163086 C 13.94607353210449 19.3359546661377 19.24304389953613 19.64614295959473 19.29598426818848 19.64925384521484 L 19.85813331604004 19.68226432800293 L 19.82439422607422 19.12015342712402 C 19.8216438293457 19.07438468933105 19.5461540222168 14.4838342666626 19.24561309814453 9.363913536071777 C 19.21699333190918 8.880124092102051 19.18161392211914 8.378183364868164 19.14740371704102 7.892773628234863 C 18.93999290466309 4.95030403137207 18.72552299499512 1.90765380859375 19.74962425231934 0.2644638419151306 C 20.88125419616699 -1.551226139068604 22.56926345825195 -1.646276116371155 24.70635414123535 -1.766606211662292 C 24.92336463928223 -1.778826117515564 25.14242362976074 -1.791166186332703 25.36307334899902 -1.805606126785278 C 25.79864311218262 -1.837026119232178 26.25880432128906 -1.867486119270325 26.71500396728516 -1.867486119270325 C 28.09587287902832 -1.867486119270325 29.66536331176758 -1.614196181297302 30.83623313903809 0.2644638419151306 C 31.68398284912109 1.624683856964111 31.60148429870605 4.029913902282715 31.5059642791748 6.814933776855469 C 31.48824310302734 7.331693649291992 31.46991348266602 7.866044044494629 31.45742416381836 8.405444145202637 C 31.34348297119141 13.44674396514893 30.76901435852051 19.04269409179688 30.76322364807129 19.09863471984863 L 30.70246315002441 19.6856746673584 L 31.29151344299316 19.64915466308594 C 31.34726333618164 19.64569473266602 36.92681503295898 19.30052375793457 42.11434555053711 19.04927444458008 C 42.65763473510742 19.02271461486816 43.18985366821289 18.9873046875 43.70455551147461 18.95305442810059 C 44.62383270263672 18.89189338684082 45.49213409423828 18.8341236114502 46.29973220825195 18.8341236114502 C 47.86358261108398 18.8341236114502 48.92256546020508 19.06203460693359 49.73339462280273 19.5731029510498 C 51.46011352539062 20.66146469116211 51.50128555297852 22.06908416748047 51.55826187133789 24.01731300354004 C 51.56665420532227 24.30435371398926 51.57533264160156 24.60116386413574 51.58989334106445 24.90729331970215 C 51.5947151184082 24.99549293518066 51.59960556030273 25.0810546875 51.60453414916992 25.16742324829102 C 51.71292495727539 27.0639533996582 51.83577346801758 29.21352386474609 49.73339462280273 30.53865432739258 C 48.67511367797852 31.20568466186523 47.22802352905273 31.50315475463867 45.04129409790039 31.50316429138184 C 43.72803497314453 31.503173828125 42.22921371459961 31.39824295043945 40.64238357543945 31.28716468811035 L 40.57838439941406 31.28268432617188 C 36.37832260131836 30.99050331115723 31.3625545501709 30.46956443786621 31.3123836517334 30.46433448791504 L 30.73613357543945 30.40429306030273 L 30.76102447509766 30.98312377929688 C 30.76302337646484 31.02957344055176 30.96471405029297 35.68449401855469 31.30434417724609 40.55657196044922 C 31.34052467346191 41.07273483276367 31.38371467590332 41.59840393066406 31.42548370361328 42.10676193237305 C 31.67536354064941 45.14797210693359 31.91138458251953 48.02052307128906 30.83692359924316 49.73442459106445 C 29.75124359130859 51.46624374389648 28.136962890625 51.60391235351562 26.13943290710449 51.60393524169922 C 25.96811294555664 51.60393524169922 25.79547309875488 51.60292434692383 25.62172317504883 51.60191345214844 C 25.44391441345215 51.60087203979492 25.26494407653809 51.59983444213867 25.08505439758301 51.59983444213867 C 25.01333427429199 51.59983444213867 24.94172286987305 51.59999465942383 24.86974334716797 51.60039520263672 C 24.69955444335938 51.60249328613281 24.53169441223145 51.60638427734375 24.36316299438477 51.61029434204102 C 24.1225528717041 51.61587524414062 23.87374305725098 51.62164306640625 23.6313533782959 51.62164306640625 Z" stroke="none"/>
        <path d="M 26.71503448486328 -1.367485046386719 L 26.71504402160645 -1.367485046386719 C 26.27520370483398 -1.367465972900391 25.82541465759277 -1.337657928466797 25.40242385864258 -1.307125091552734 L 25.39571380615234 -1.306667327880859 C 25.17354393005371 -1.292137145996094 24.95296287536621 -1.279697418212891 24.73446464538574 -1.26739501953125 C 22.45694351196289 -1.139156341552734 21.12218284606934 -0.9924964904785156 20.17396354675293 0.5289230346679688 C 19.23569297790527 2.034374237060547 19.45376396179199 5.128082275390625 19.64616394042969 7.85760498046875 C 19.68047332763672 8.344402313232422 19.71596336364746 8.847782135009766 19.74475288391113 9.334613800048828 C 20.04527282714844 14.45417404174805 20.32075309753418 19.04442405700684 20.32349395751953 19.09019470214844 L 20.39098358154297 20.21441459655762 L 19.26667404174805 20.14839363098145 C 19.21376419067383 20.14528465270996 13.92039489746094 19.83531379699707 9.124515533447266 19.62797355651855 C 8.404254913330078 19.59649467468262 7.703823089599609 19.55343437194824 7.026443481445312 19.51178359985352 C 5.908615112304688 19.44306373596191 4.852775573730469 19.37815475463867 3.903583526611328 19.37815475463867 C 2.294063568115234 19.37815475463867 1.219383239746094 19.57681465148926 0.5215034484863281 20.00336456298828 C -1.347755432128906 21.14584350585938 -1.337165832519531 23.21153450012207 -1.327835083007812 25.0340633392334 L -1.327064514160156 25.19411468505859 L -1.327907562255859 25.42009353637695 C -1.337394714355469 27.78319358825684 -1.342155456542969 28.96932411193848 0.5215034484863281 30.10839462280273 C 1.245433807373047 30.55085372924805 2.321853637695312 30.75693321228027 3.909053802490234 30.75693321228027 C 4.885772705078125 30.75693321228027 5.930572509765625 30.68234443664551 7.036705017089844 30.60337448120117 C 7.625553131103516 30.56133460998535 8.234455108642578 30.51786422729492 8.837444305419922 30.4861946105957 C 14.09423446655273 30.21223449707031 19.22605323791504 29.96526336669922 19.27727317810059 29.96279335021973 L 20.43182373046875 29.90728378295898 L 20.32065391540527 31.05782318115234 C 20.31486320495605 31.11777305603027 19.73758316040039 37.09884262084961 19.40767288208008 41.08918380737305 C 19.04371452331543 45.47326278686523 18.93496322631836 47.49469375610352 20.17256355285645 49.46883392333984 C 21.04360389709473 50.85825347900391 22.0601634979248 51.12164306640625 23.63136291503906 51.12164306640625 C 23.86793327331543 51.12164306640625 24.1137638092041 51.11594390869141 24.35150337219238 51.11042404174805 C 24.52186393737793 51.10647201538086 24.69154357910156 51.10255432128906 24.86004447937012 51.1004638671875 L 24.86699295043945 51.10040283203125 C 25.12151908874512 51.09897232055664 25.37423324584961 51.1004524230957 25.62485313415527 51.10192489624023 C 25.79755401611328 51.10292434692383 25.96914291381836 51.10393524169922 26.13943290710449 51.10393524169922 C 28.34063339233398 51.10393524169922 29.54162406921387 50.8592643737793 30.41329383850098 49.46883392333984 C 31.39944458007812 47.89579391479492 31.15935325622559 44.9736442565918 30.92716407775879 42.14771270751953 C 30.88527297973633 41.63787460327148 30.84195327758789 41.11068344116211 30.8055534362793 40.59134292602539 C 30.46546363830566 35.71270370483398 30.26348304748535 31.05112457275391 30.26148414611816 31.00460433959961 L 30.21170425415039 29.84694290161133 L 31.36419296264648 29.9670238494873 C 31.41429328918457 29.97224426269531 36.42200469970703 30.49233436584473 40.61328506469727 30.78390312194824 L 40.67702484130859 30.78836441040039 C 42.25498199462891 30.89882469177246 43.74544525146484 31.00316429138184 45.04129409790039 31.00316429138184 C 47.12812423706055 31.00316429138184 48.49299240112305 30.72945404052734 49.4667854309082 30.11566352844238 C 50.29323196411133 29.59475326538086 50.781494140625 28.92136383056641 51.00338363647461 27.99646377563477 C 51.21498489379883 27.11444473266602 51.15925216674805 26.1391544342041 51.10535430908203 25.19597434997559 C 51.10039520263672 25.10918426513672 51.09548187255859 25.02321434020996 51.09082412719727 24.93816375732422 L 51.0904655456543 24.93105316162109 C 51.07568359375 24.62035369873047 51.06693267822266 24.32121467590332 51.05847549438477 24.03192329406738 C 50.99745559692383 21.94536399841309 50.90432357788086 20.90217399597168 49.4667854309082 19.99609375 C 48.74042510986328 19.53826332092285 47.763671875 19.33410453796387 46.29976272583008 19.3341236114502 C 45.50876235961914 19.33413314819336 44.64848327636719 19.3913631439209 43.73770523071289 19.45195388793945 C 43.22086334228516 19.48634338378906 42.68642425537109 19.52189445495605 42.13852310180664 19.5486946105957 C 36.95459365844727 19.79976463317871 31.378173828125 20.14474296569824 31.32245445251465 20.148193359375 L 30.14438438415527 20.22122383117676 L 30.26587295532227 19.04716300964355 C 30.27164459228516 18.99141311645508 30.84409332275391 13.4141731262207 30.95756340026855 8.393875122070312 C 30.97011375427246 7.851692199707031 30.98849296569824 7.315925598144531 31.00626373291016 6.797794342041016 C 31.09512329101562 4.206974029541016 31.17905426025391 1.759822845458984 30.41189384460449 0.5289230346679688 C 29.37311363220215 -1.137805938720703 28.02121353149414 -1.367527008056641 26.71503448486328 -1.367485046386719 M 26.71500778198242 -2.367485046386719 C 28.36677551269531 -2.367538452148438 30.02177238464355 -1.987644195556641 31.26056289672852 -7.62939453125e-06 C 32.35861206054688 1.761814117431641 32.03767395019531 4.944843292236328 31.95729446411133 8.417015075683594 C 31.84155464172363 13.53787231445312 31.26056289672852 19.15011405944824 31.26056289672852 19.15011405944824 C 31.26056289672852 19.15011405944824 36.83899307250977 18.8041934967041 42.09014511108398 18.54986381530762 C 45.26837158203125 18.39443397521973 48.06983184814453 17.93352317810059 50.00000381469727 19.15011405944824 C 52.22999572753906 20.55568313598633 51.97420501708984 22.46353340148926 52.08933258056641 24.8835334777832 C 52.19907379150391 26.88945388793945 52.45486450195312 29.41433334350586 50.00000381469727 30.96164321899414 C 47.87307357788086 32.30224609375 44.65040588378906 32.06892395019531 40.54346466064453 31.78146362304688 C 36.28596496582031 31.48528289794922 31.26056289672852 30.96164321899414 31.26056289672852 30.96164321899414 C 31.26056289672852 30.96164321899414 31.46003341674805 35.60000610351562 31.80313301086426 40.52180480957031 C 32.05360412597656 44.09527587890625 32.61820220947266 47.83438491821289 31.26056289672852 49.99999237060547 C 29.82214736938477 52.29447174072266 27.53602409362793 52.09983062744141 25.08505058288574 52.09983444213867 C 25.01424980163574 52.09983444213867 24.94354438781738 52.09999465942383 24.87248420715332 52.10038375854492 C 22.92782974243164 52.12459564208984 20.82913970947266 52.39883422851562 19.32529449462891 49.99999237060547 C 17.88112258911133 47.69635391235352 18.04945373535156 45.36273193359375 18.41110420227051 41.00645446777344 C 18.74537467956543 36.96339416503906 19.32529449462891 30.96164321899414 19.32529449462891 30.96164321899414 C 19.32529449462891 30.96164321899414 14.20507431030273 31.20781326293945 8.889484405517578 31.48483467102051 C 5.520381927490234 31.66181373596191 2.038818359375 32.20775604248047 3.814697265625e-06 30.96164321899414 C -2.415664672851562 29.48519325256348 -2.334976196289062 27.71943473815918 -2.327075958251953 25.19462394714355 C -2.334976196289062 23.29011344909668 -2.415664672851562 20.62655448913574 3.814697265625e-06 19.15011405944824 C 1.956687927246094 17.95419502258301 5.331535339355469 18.46125602722168 9.168174743652344 18.6289234161377 C 14.02731323242188 18.83900451660156 19.32529449462891 19.15011405944824 19.32529449462891 19.15011405944824 C 19.32529449462891 19.15011405944824 19.05051422119141 14.57272338867188 18.74647331237793 9.393215179443359 C 18.54465293884277 5.981235504150391 18.03330230712891 2.073005676269531 19.32529449462891 -7.62939453125e-06 C 20.72172355651855 -2.240566253662109 22.93218421936035 -2.147636413574219 25.3304328918457 -2.304534912109375 C 25.78531455993652 -2.337368011474609 26.25019836425781 -2.367469787597656 26.71500778198242 -2.367485046386719 Z" stroke="none" fill="#fa4f8a"/>
      </g>
    </g>
  </g>
</svg>
