<svg xmlns="http://www.w3.org/2000/svg" xmlns:xlink="http://www.w3.org/1999/xlink" width="30" height="47" viewBox="0 0 30 47">
  <defs>
    <filter id="Rectangle_12" x="0" y="3" width="30" height="9" filterUnits="userSpaceOnUse">
      <feOffset dy="3" input="SourceAlpha"/>
      <feGaussianBlur result="blur"/>
      <feFlood flood-opacity="0.161"/>
      <feComposite operator="in" in2="blur"/>
      <feComposite in="SourceGraphic"/>
    </filter>
    <filter id="Rectangle_7" x="0" y="10" width="30" height="37" filterUnits="userSpaceOnUse">
      <feOffset dy="3" input="SourceAlpha"/>
      <feGaussianBlur result="blur-2"/>
      <feFlood flood-opacity="0.161"/>
      <feComposite operator="in" in2="blur-2"/>
      <feComposite in="SourceGraphic"/>
    </filter>
  </defs>
  <g id="Groupe_48" data-name="Groupe 48" transform="translate(-239.649 -322)">
    <g id="Ellipse_36" data-name="Ellipse 36" transform="translate(251.649 322)" fill="none" stroke="#fa4f8a" stroke-width="1">
      <circle cx="3" cy="3" r="3" stroke="none"/>
      <circle cx="3" cy="3" r="2.5" fill="none"/>
    </g>
    <g transform="matrix(1, 0, 0, 1, 239.65, 322)" filter="url(#Rectangle_12)">
      <g id="Rectangle_12-2" data-name="Rectangle 12" transform="translate(0 3)" fill="#fa4f8a" stroke="#fa4f8a" stroke-linejoin="bevel" stroke-width="2">
        <rect width="30" height="6" stroke="none"/>
        <rect x="1" y="1" width="28" height="4" fill="none"/>
      </g>
    </g>
    <g transform="matrix(1, 0, 0, 1, 239.65, 322)" filter="url(#Rectangle_7)">
      <g id="Rectangle_7-2" data-name="Rectangle 7" transform="translate(0 10)" fill="#fa4f8a" stroke="#fa4f8a" stroke-width="1">
        <rect width="30" height="34" rx="2" stroke="none"/>
        <rect x="0.5" y="0.5" width="29" height="33" rx="1.5" fill="none"/>
      </g>
    </g>
    <g id="Rectangle_8" data-name="Rectangle 8" transform="translate(243.649 337)" fill="#fff" stroke="#fff" stroke-width="1">
      <rect width="4" height="25" rx="2" stroke="none"/>
      <rect x="0.5" y="0.5" width="3" height="24" rx="1.5" fill="none"/>
    </g>
    <g id="Rectangle_9" data-name="Rectangle 9" transform="translate(249.649 337)" fill="#fff" stroke="#fff" stroke-width="1">
      <rect width="4" height="25" rx="2" stroke="none"/>
      <rect x="0.5" y="0.5" width="3" height="24" rx="1.5" fill="none"/>
    </g>
    <g id="Rectangle_10" data-name="Rectangle 10" transform="translate(255.649 337)" fill="#fff" stroke="#fff" stroke-width="1">
      <rect width="4" height="25" rx="2" stroke="none"/>
      <rect x="0.5" y="0.5" width="3" height="24" rx="1.5" fill="none"/>
    </g>
    <g id="Rectangle_11" data-name="Rectangle 11" transform="translate(261.649 337)" fill="#fff" stroke="#fff" stroke-width="1">
      <rect width="4" height="25" rx="2" stroke="none"/>
      <rect x="0.5" y="0.5" width="3" height="24" rx="1.5" fill="none"/>
    </g>
  </g>
</svg>
