<svg xmlns="http://www.w3.org/2000/svg" xmlns:xlink="http://www.w3.org/1999/xlink" width="55" height="58" viewBox="0 0 55 58">
  <defs>
    <radialGradient id="radial-gradient" cx="0.5" cy="0.5" r="0.5" gradientUnits="objectBoundingBox">
      <stop offset="0" stop-color="#fa4f8a"/>
      <stop offset="0.586" stop-color="#fd4b88"/>
      <stop offset="0.798" stop-color="#ff4887"/>
      <stop offset="1" stop-color="#ff0058"/>
    </radialGradient>
    <filter id="Ellipse_27" x="0" y="0" width="55" height="58" filterUnits="userSpaceOnUse">
      <feOffset dy="3" input="SourceAlpha"/>
      <feGaussianBlur result="blur"/>
      <feFlood flood-opacity="0.161"/>
      <feComposite operator="in" in2="blur"/>
      <feComposite in="SourceGraphic"/>
    </filter>
    <filter id="Tracé_34" x="14" y="13" width="27" height="30" filterUnits="userSpaceOnUse">
      <feOffset dy="3" input="SourceAlpha"/>
      <feGaussianBlur result="blur-2"/>
      <feFlood flood-opacity="0.161"/>
      <feComposite operator="in" in2="blur-2"/>
      <feComposite in="SourceGraphic"/>
    </filter>
  </defs>
  <g id="Groupe_51" data-name="Groupe 51" transform="translate(-92.649 -384)">
    <g transform="matrix(1, 0, 0, 1, 92.65, 384)" filter="url(#Ellipse_27)">
      <g id="Ellipse_27-2" data-name="Ellipse 27" stroke="#fff" stroke-width="3" fill="url(#radial-gradient)">
        <circle cx="27.5" cy="27.5" r="27.5" stroke="none"/>
        <circle cx="27.5" cy="27.5" r="26" fill="none"/>
      </g>
    </g>
    <g id="Tracé_55" data-name="Tracé 55" transform="translate(131.129 430.852) rotate(-180)" fill="#fff">
      <path d="M -3.145030736923218 2.578214645385742 C -2.637011289596558 2.119013547897339 -1.999728560447693 1.60741925239563 -1.220110654830933 1.06581175327301 C -0.5700230002403259 0.6141918897628784 0.1520228683948517 0.1701052337884903 0.8693722486495972 -0.2296004146337509 C 0.4617294073104858 0.01096424646675587 0.2641450166702271 0.1431266069412231 -0.08290064334869385 0.3752717673778534 C -0.1892106384038925 0.4463717639446259 -0.3099906444549561 0.5271717309951782 -0.456120640039444 0.6239517331123352 C -0.5814806222915649 0.7069717645645142 -0.687480628490448 0.7766217589378357 -0.7813606262207031 0.8383117318153381 C -1.404592871665955 1.24782395362854 -1.509468674659729 1.316733717918396 -3.145030736923218 2.578214645385742 Z" stroke="none"/>
      <path d="M 4.806027889251709 -2.332340478897095 C 4.938228130340576 -2.332340478897095 5.045726299285889 -2.312403440475464 5.124639511108398 -2.269987821578979 C 5.903979301452637 -1.851087808609009 5.014859199523926 -1.924007654190063 2.203819274902344 -0.4177277088165283 C 0.6624893546104431 0.4521722793579102 0.7282593250274658 0.4392521381378174 -0.1800306439399719 1.040812253952026 C -1.19472062587738 1.712842226028442 -0.9469805955886841 1.512632250785828 -3.242850542068481 3.285292148590088 C -4.978331565856934 4.663142681121826 -5.258161067962646 5.368261814117432 -5.255830764770508 4.605031967163086 C -5.253490447998047 3.841792106628418 -3.768980503082275 2.22772216796875 -1.505380630493164 0.6551821231842041 C 0.5290042757987976 -0.7581264972686768 3.632641553878784 -2.332340478897095 4.806027889251709 -2.332340478897095 Z" stroke="none" fill="#fff"/>
    </g>
    <g id="Ellipse_28" data-name="Ellipse 28" transform="matrix(0.819, -0.574, 0.574, 0.819, 105.88, 393.392)" fill="#fff" stroke="#fff" stroke-width="1">
      <ellipse cx="2.5" cy="1" rx="2.5" ry="1" stroke="none"/>
      <ellipse cx="2.5" cy="1" rx="2" ry="0.5" fill="none"/>
    </g>
    <g transform="matrix(1, 0, 0, 1, 92.65, 384)" filter="url(#Tracé_34)">
      <path id="Tracé_34-2" data-name="Tracé 34" d="M53.328,385.95v-11.3H50.152l12.379-13.7,12.621,13.7H72.1v11.3H65.674V379.08H59.44v6.871Z" transform="translate(-35.15 -346.95)" fill="#fff" stroke="#fff" stroke-linejoin="round" stroke-width="2"/>
    </g>
  </g>
</svg>
