<svg xmlns="http://www.w3.org/2000/svg" xmlns:xlink="http://www.w3.org/1999/xlink" width="35" height="32" viewBox="0 0 35 32">
  <defs>
    <filter id="Tracé_25" x="0" y="0" width="35" height="9" filterUnits="userSpaceOnUse">
      <feOffset dy="3" input="SourceAlpha"/>
      <feGaussianBlur result="blur"/>
      <feFlood flood-opacity="0.161"/>
      <feComposite operator="in" in2="blur"/>
      <feComposite in="SourceGraphic"/>
    </filter>
    <filter id="Tracé_26" x="0" y="12" width="35" height="9" filterUnits="userSpaceOnUse">
      <feOffset dy="3" input="SourceAlpha"/>
      <feGaussianBlur result="blur-2"/>
      <feFlood flood-opacity="0.161"/>
      <feComposite operator="in" in2="blur-2"/>
      <feComposite in="SourceGraphic"/>
    </filter>
    <filter id="Tracé_27" x="0" y="23" width="35" height="9" filterUnits="userSpaceOnUse">
      <feOffset dy="3" input="SourceAlpha"/>
      <feGaussianBlur result="blur-3"/>
      <feFlood flood-opacity="0.161"/>
      <feComposite operator="in" in2="blur-3"/>
      <feComposite in="SourceGraphic"/>
    </filter>
  </defs>
  <g id="Groupe_47" data-name="Groupe 47" transform="translate(-174.649 -333.528)">
    <g transform="matrix(1, 0, 0, 1, 174.65, 333.53)" filter="url(#Tracé_25)">
      <g id="Tracé_25-2" data-name="Tracé 25" transform="translate(0.69 0.33)" fill="#fa4f8a">
        <path d="M 17.92539024353027 5.171439170837402 C 8.915606498718262 5.171439170837402 1.133026003837585 5.117480278015137 0.1211216896772385 5.049657821655273 C 0.04549799859523773 4.934964656829834 -0.18865966796875 4.443666934967041 -0.18865966796875 2.761449098587036 C -0.18865966796875 0.9753404259681702 0.04927781596779823 0.445881724357605 0.1275390684604645 0.3201573193073273 C 1.248443961143494 0.2413002997636795 10.18340873718262 0.171439066529274 19.42098999023438 0.171439066529274 C 28.70781898498535 0.171439066529274 32.71056747436523 0.2426055520772934 33.42653274536133 0.3079336881637573 C 33.57511138916016 0.5066930055618286 33.81134033203125 1.225581169128418 33.81134033203125 2.643799066543579 C 33.81134033203125 3.40916895866394 33.77972030639648 3.958409070968628 33.71183013916016 4.372319221496582 C 33.63291168212891 4.853513717651367 33.52629852294922 5.008383750915527 33.487548828125 5.050577640533447 C 32.69927597045898 5.123141288757324 26.52848434448242 5.171439170837402 17.92539024353027 5.171439170837402 Z" stroke="none"/>
        <path d="M 19.42098999023438 0.6714391708374023 C 10.84799385070801 0.6714391708374023 2.42852783203125 0.7322826385498047 0.4771194458007812 0.8038778305053711 C 0.4066123962402344 1.078948497772217 0.31134033203125 1.655341863632202 0.31134033203125 2.761449098587036 C 0.31134033203125 3.772929668426514 0.4000663757324219 4.306546688079834 0.4668121337890625 4.564822196960449 C 2.250461578369141 4.625118255615234 9.598499298095703 4.671439170837402 17.92539024353027 4.671439170837402 C 25.69175910949707 4.671439170837402 31.67562294006348 4.629924774169922 33.16289520263672 4.568306922912598 C 33.22879791259766 4.328096866607666 33.31134033203125 3.796841144561768 33.31134033203125 2.643799066543579 C 33.31134033203125 1.658455848693848 33.19143295288086 1.070135593414307 33.09824752807617 0.7877583503723145 C 31.90678215026855 0.7296051979064941 27.83594512939453 0.6714391708374023 19.42098999023438 0.6714391708374023 M 19.42098999023438 -0.3285655975341797 C 26.78359603881836 -0.3285655975341797 33.45962142944336 -0.2811965942382812 33.64986038208008 -0.160581111907959 C 34.07490158081055 0.1089091300964355 34.31134033203125 1.220768928527832 34.31134033203125 2.643799066543579 C 34.31134033203125 4.066819190979004 34.20632934570312 5.327838897705078 33.64986038208008 5.531528949737549 C 33.38470077514648 5.628592491149902 25.81995010375977 5.671436309814453 17.92539215087891 5.671436309814453 C 9.252197265625 5.671436309814453 0.1803627014160156 5.619770050048828 -0.060699462890625 5.531528949737549 C -0.52117919921875 5.362968921661377 -0.68865966796875 4.184479236602783 -0.68865966796875 2.761449098587036 C -0.68865966796875 1.338428974151611 -0.5343284606933594 0.01278924942016602 -0.060699462890625 -0.160581111907959 C 0.2009429931640625 -0.2563557624816895 10.33344841003418 -0.3285655975341797 19.42098999023438 -0.3285655975341797 Z" stroke="none" fill="#fa4f8a"/>
      </g>
    </g>
    <g transform="matrix(1, 0, 0, 1, 174.65, 333.53)" filter="url(#Tracé_26)">
      <g id="Tracé_26-2" data-name="Tracé 26" transform="translate(0.69 12.33)" fill="#fa4f8a">
        <path d="M 17.92539024353027 5.171439170837402 C 8.915606498718262 5.171439170837402 1.133026003837585 5.117480278015137 0.1211216896772385 5.049657821655273 C 0.04549799859523773 4.934964656829834 -0.18865966796875 4.443666934967041 -0.18865966796875 2.761449098587036 C -0.18865966796875 0.9753404259681702 0.04927781596779823 0.445881724357605 0.1275390684604645 0.3201573193073273 C 1.248443961143494 0.2413002997636795 10.18340873718262 0.171439066529274 19.42098999023438 0.171439066529274 C 28.70781898498535 0.171439066529274 32.71056747436523 0.2426055520772934 33.42653274536133 0.3079336881637573 C 33.57511138916016 0.5066930055618286 33.81134033203125 1.225581169128418 33.81134033203125 2.643799066543579 C 33.81134033203125 3.40916895866394 33.77972030639648 3.958409070968628 33.71183013916016 4.372319221496582 C 33.63291168212891 4.853513717651367 33.52629852294922 5.008383750915527 33.487548828125 5.050577640533447 C 32.69927597045898 5.123141288757324 26.52848434448242 5.171439170837402 17.92539024353027 5.171439170837402 Z" stroke="none"/>
        <path d="M 19.42098999023438 0.6714391708374023 C 10.84799385070801 0.6714391708374023 2.42852783203125 0.7322826385498047 0.4771194458007812 0.8038778305053711 C 0.4066123962402344 1.078948497772217 0.31134033203125 1.655341863632202 0.31134033203125 2.761449098587036 C 0.31134033203125 3.772929668426514 0.4000663757324219 4.306546688079834 0.4668121337890625 4.564822196960449 C 2.250461578369141 4.625118255615234 9.598499298095703 4.671439170837402 17.92539024353027 4.671439170837402 C 25.69175910949707 4.671439170837402 31.67562294006348 4.629924774169922 33.16289520263672 4.568306922912598 C 33.22879791259766 4.328096866607666 33.31134033203125 3.796841144561768 33.31134033203125 2.643799066543579 C 33.31134033203125 1.658455848693848 33.19143295288086 1.070135593414307 33.09824752807617 0.7877583503723145 C 31.90678215026855 0.7296051979064941 27.83594512939453 0.6714391708374023 19.42098999023438 0.6714391708374023 M 19.42098999023438 -0.3285655975341797 C 26.78359603881836 -0.3285655975341797 33.45962142944336 -0.2811965942382812 33.64986038208008 -0.160581111907959 C 34.07490158081055 0.1089091300964355 34.31134033203125 1.220768928527832 34.31134033203125 2.643799066543579 C 34.31134033203125 4.066819190979004 34.20632934570312 5.327838897705078 33.64986038208008 5.531528949737549 C 33.38470077514648 5.628592491149902 25.81995010375977 5.671436309814453 17.92539215087891 5.671436309814453 C 9.252197265625 5.671436309814453 0.1803627014160156 5.619770050048828 -0.060699462890625 5.531528949737549 C -0.52117919921875 5.362968921661377 -0.68865966796875 4.184479236602783 -0.68865966796875 2.761449098587036 C -0.68865966796875 1.338428974151611 -0.5343284606933594 0.01278924942016602 -0.060699462890625 -0.160581111907959 C 0.2009429931640625 -0.2563557624816895 10.33344841003418 -0.3285655975341797 19.42098999023438 -0.3285655975341797 Z" stroke="none" fill="#fa4f8a"/>
      </g>
    </g>
    <g transform="matrix(1, 0, 0, 1, 174.65, 333.53)" filter="url(#Tracé_27)">
      <g id="Tracé_27-2" data-name="Tracé 27" transform="translate(0.69 23.33)" fill="#fa4f8a">
        <path d="M 17.92539024353027 5.171439170837402 C 8.915606498718262 5.171439170837402 1.133026003837585 5.117480278015137 0.1211216896772385 5.049657821655273 C 0.04549799859523773 4.934964656829834 -0.18865966796875 4.443666934967041 -0.18865966796875 2.761449098587036 C -0.18865966796875 0.9753404259681702 0.04927781596779823 0.445881724357605 0.1275390684604645 0.3201573193073273 C 1.248443961143494 0.2413002997636795 10.18340873718262 0.171439066529274 19.42098999023438 0.171439066529274 C 28.70781898498535 0.171439066529274 32.71056747436523 0.2426055520772934 33.42653274536133 0.3079336881637573 C 33.57511138916016 0.5066930055618286 33.81134033203125 1.225581169128418 33.81134033203125 2.643799066543579 C 33.81134033203125 3.40916895866394 33.77972030639648 3.958409070968628 33.71183013916016 4.372319221496582 C 33.63291168212891 4.853513717651367 33.52629852294922 5.008383750915527 33.487548828125 5.050577640533447 C 32.69927597045898 5.123141288757324 26.52848434448242 5.171439170837402 17.92539024353027 5.171439170837402 Z" stroke="none"/>
        <path d="M 19.42098999023438 0.6714391708374023 C 10.84799385070801 0.6714391708374023 2.42852783203125 0.7322826385498047 0.4771194458007812 0.8038778305053711 C 0.4066123962402344 1.078948497772217 0.31134033203125 1.655341863632202 0.31134033203125 2.761449098587036 C 0.31134033203125 3.772929668426514 0.4000663757324219 4.306546688079834 0.4668121337890625 4.564822196960449 C 2.250461578369141 4.625118255615234 9.598499298095703 4.671439170837402 17.92539024353027 4.671439170837402 C 25.69175910949707 4.671439170837402 31.67562294006348 4.629924774169922 33.16289520263672 4.568306922912598 C 33.22879791259766 4.328096866607666 33.31134033203125 3.796841144561768 33.31134033203125 2.643799066543579 C 33.31134033203125 1.658455848693848 33.19143295288086 1.070135593414307 33.09824752807617 0.7877583503723145 C 31.90678215026855 0.7296051979064941 27.83594512939453 0.6714391708374023 19.42098999023438 0.6714391708374023 M 19.42098999023438 -0.3285655975341797 C 26.78359603881836 -0.3285655975341797 33.45962142944336 -0.2811965942382812 33.64986038208008 -0.160581111907959 C 34.07490158081055 0.1089091300964355 34.31134033203125 1.220768928527832 34.31134033203125 2.643799066543579 C 34.31134033203125 4.066819190979004 34.20632934570312 5.327838897705078 33.64986038208008 5.531528949737549 C 33.38470077514648 5.628592491149902 25.81995010375977 5.671436309814453 17.92539215087891 5.671436309814453 C 9.252197265625 5.671436309814453 0.1803627014160156 5.619770050048828 -0.060699462890625 5.531528949737549 C -0.52117919921875 5.362968921661377 -0.68865966796875 4.184479236602783 -0.68865966796875 2.761449098587036 C -0.68865966796875 1.338428974151611 -0.5343284606933594 0.01278924942016602 -0.060699462890625 -0.160581111907959 C 0.2009429931640625 -0.2563557624816895 10.33344841003418 -0.3285655975341797 19.42098999023438 -0.3285655975341797 Z" stroke="none" fill="#fa4f8a"/>
      </g>
    </g>
  </g>
</svg>
