<svg xmlns="http://www.w3.org/2000/svg" xmlns:xlink="http://www.w3.org/1999/xlink" width="55" height="58" viewBox="0 0 55 58">
  <defs>
    <radialGradient id="radial-gradient" cx="0.5" cy="0.5" r="0.5" gradientUnits="objectBoundingBox">
      <stop offset="0" stop-color="#fa4f8a"/>
      <stop offset="0.586" stop-color="#fd4b88"/>
      <stop offset="0.798" stop-color="#ff4887"/>
      <stop offset="1" stop-color="#ff0058"/>
    </radialGradient>
    <filter id="Ellipse_31" x="0" y="0" width="55" height="58" filterUnits="userSpaceOnUse">
      <feOffset dy="3" input="SourceAlpha"/>
      <feGaussianBlur result="blur"/>
      <feFlood flood-opacity="0.161"/>
      <feComposite operator="in" in2="blur"/>
      <feComposite in="SourceGraphic"/>
    </filter>
    <filter id="Tracé_28" x="15" y="14.5" width="25" height="8" filterUnits="userSpaceOnUse">
      <feOffset dy="2" input="SourceAlpha"/>
      <feGaussianBlur result="blur-2"/>
      <feFlood flood-opacity="0.161"/>
      <feComposite operator="in" in2="blur-2"/>
      <feComposite in="SourceGraphic"/>
    </filter>
    <filter id="Tracé_29" x="15" y="24.5" width="25" height="8" filterUnits="userSpaceOnUse">
      <feOffset dy="2" input="SourceAlpha"/>
      <feGaussianBlur result="blur-3"/>
      <feFlood flood-opacity="0.161"/>
      <feComposite operator="in" in2="blur-3"/>
      <feComposite in="SourceGraphic"/>
    </filter>
    <filter id="Tracé_30" x="15" y="34.5" width="25" height="8" filterUnits="userSpaceOnUse">
      <feOffset dy="2" input="SourceAlpha"/>
      <feGaussianBlur result="blur-4"/>
      <feFlood flood-opacity="0.161"/>
      <feComposite operator="in" in2="blur-4"/>
      <feComposite in="SourceGraphic"/>
    </filter>
  </defs>
  <g id="Groupe_52" data-name="Groupe 52" transform="translate(-31.649 -384)">
    <g transform="matrix(1, 0, 0, 1, 31.65, 384)" filter="url(#Ellipse_31)">
      <g id="Ellipse_31-2" data-name="Ellipse 31" stroke="#fff" stroke-width="3" fill="url(#radial-gradient)">
        <circle cx="27.5" cy="27.5" r="27.5" stroke="none"/>
        <circle cx="27.5" cy="27.5" r="26" fill="none"/>
      </g>
    </g>
    <g id="Tracé_57" data-name="Tracé 57" transform="translate(70.129 430.852) rotate(-180)" fill="#fff">
      <path d="M -3.145030736923218 2.578214645385742 C -2.637011289596558 2.119013547897339 -1.999728560447693 1.60741925239563 -1.220110654830933 1.06581175327301 C -0.5700230002403259 0.6141918897628784 0.1520228683948517 0.1701052337884903 0.8693722486495972 -0.2296004146337509 C 0.4617294073104858 0.01096424646675587 0.2641450166702271 0.1431266069412231 -0.08290064334869385 0.3752717673778534 C -0.1892106384038925 0.4463717639446259 -0.3099906444549561 0.5271717309951782 -0.456120640039444 0.6239517331123352 C -0.5814806222915649 0.7069717645645142 -0.687480628490448 0.7766217589378357 -0.7813606262207031 0.8383117318153381 C -1.404592871665955 1.24782395362854 -1.509468674659729 1.316733717918396 -3.145030736923218 2.578214645385742 Z" stroke="none"/>
      <path d="M 4.806027889251709 -2.332340478897095 C 4.938228130340576 -2.332340478897095 5.045726299285889 -2.312403440475464 5.124639511108398 -2.269987821578979 C 5.903979301452637 -1.851087808609009 5.014859199523926 -1.924007654190063 2.203819274902344 -0.4177277088165283 C 0.6624893546104431 0.4521722793579102 0.7282593250274658 0.4392521381378174 -0.1800306439399719 1.040812253952026 C -1.19472062587738 1.712842226028442 -0.9469805955886841 1.512632250785828 -3.242850542068481 3.285292148590088 C -4.978331565856934 4.663142681121826 -5.258161067962646 5.368261814117432 -5.255830764770508 4.605031967163086 C -5.253490447998047 3.841792106628418 -3.768980503082275 2.22772216796875 -1.505380630493164 0.6551821231842041 C 0.5290042757987976 -0.7581264972686768 3.632641553878784 -2.332340478897095 4.806027889251709 -2.332340478897095 Z" stroke="none" fill="#fff"/>
    </g>
    <g id="Ellipse_32" data-name="Ellipse 32" transform="matrix(0.819, -0.574, 0.574, 0.819, 44.88, 393.392)" fill="#fff" stroke="#fff" stroke-width="1">
      <ellipse cx="2.5" cy="1" rx="2.5" ry="1" stroke="none"/>
      <ellipse cx="2.5" cy="1" rx="2" ry="0.5" fill="none"/>
    </g>
    <g transform="matrix(1, 0, 0, 1, 31.65, 384)" filter="url(#Tracé_28)">
      <g id="Tracé_28-2" data-name="Tracé 28" transform="translate(15.69 14.83)" fill="#fff">
        <path d="M 12.60708999633789 5.171439170837402 C 6.458250999450684 5.171439170837402 1.059869647026062 5.121953010559082 0.02121434360742569 5.058685779571533 C -0.04890349879860878 4.870043277740479 -0.18865966796875 4.300882816314697 -0.18865966796875 2.761449098587036 C -0.18865966796875 1.114408731460571 -0.04489710927009583 0.5097162127494812 0.02679632604122162 0.3105987906455994 C 1.16414737701416 0.2361068278551102 7.358777046203613 0.171439066529274 13.67537021636963 0.171439066529274 C 19.94915390014648 0.171439066529274 22.84221458435059 0.2347861081361771 23.54610252380371 0.2954344749450684 C 23.6468677520752 0.5384986996650696 23.81134033203125 1.230333089828491 23.81134033203125 2.643799066543579 C 23.81134033203125 4.334324836730957 23.68231201171875 4.88322639465332 23.59891319274902 5.061175346374512 C 22.75129699707031 5.126718521118164 18.36652183532715 5.171439170837402 12.60708999633789 5.171439170837402 Z" stroke="none"/>
        <path d="M 13.67537021636963 0.6714391708374023 C 7.427082061767578 0.6714391708374023 2.077478408813477 0.7308783531188965 0.4248676300048828 0.7925553321838379 C 0.3716659545898438 1.110321998596191 0.31134033203125 1.703814744949341 0.31134033203125 2.761449098587036 C 0.31134033203125 3.725951194763184 0.3672103881835938 4.276079177856445 0.41748046875 4.575825214385986 C 2.011791229248047 4.630420684814453 7.028495788574219 4.671439170837402 12.60708999633789 4.671439170837402 C 18.49977684020996 4.671439170837402 22.00676918029785 4.628128051757812 23.21026420593262 4.580663681030273 C 23.26053237915039 4.285889625549316 23.31134033203125 3.721314907073975 23.31134033203125 2.643799066543579 C 23.31134033203125 1.69607949256897 23.23554229736328 1.099958896636963 23.16585159301758 0.7722291946411133 C 22.10315322875977 0.7204480171203613 19.20688819885254 0.6714391708374023 13.67537021636963 0.6714391708374023 M 13.67537117004395 -0.3285655975341797 C 18.93437576293945 -0.3285655975341797 23.70296287536621 -0.2811965942382812 23.8388500213623 -0.160581111907959 C 24.1424503326416 0.1089091300964355 24.31134033203125 1.220768928527832 24.31134033203125 2.643799066543579 C 24.31134033203125 4.066819190979004 24.23633003234863 5.327838897705078 23.8388500213623 5.531528949737549 C 23.44137001037598 5.735229015350342 0.08880233764648438 5.700088977813721 -0.2401199340820312 5.531528949737549 C -0.5690402984619141 5.362968921661377 -0.68865966796875 4.184479236602783 -0.68865966796875 2.761449098587036 C -0.68865966796875 1.338428974151611 -0.5784187316894531 0.01278924942016602 -0.2401199340820312 -0.160581111907959 C -0.05323219299316406 -0.2563557624816895 7.184270858764648 -0.3285655975341797 13.67537117004395 -0.3285655975341797 Z" stroke="none" fill="#fff"/>
      </g>
    </g>
    <g transform="matrix(1, 0, 0, 1, 31.65, 384)" filter="url(#Tracé_29)">
      <g id="Tracé_29-2" data-name="Tracé 29" transform="translate(15.69 24.83)" fill="#fff">
        <path d="M 12.60708999633789 5.171439170837402 C 6.458250999450684 5.171439170837402 1.059869647026062 5.121953010559082 0.02121434360742569 5.058685779571533 C -0.04890349879860878 4.870043277740479 -0.18865966796875 4.300882816314697 -0.18865966796875 2.761449098587036 C -0.18865966796875 1.114408731460571 -0.04489710927009583 0.5097162127494812 0.02679632604122162 0.3105987906455994 C 1.16414737701416 0.2361068278551102 7.358777046203613 0.171439066529274 13.67537021636963 0.171439066529274 C 19.94915390014648 0.171439066529274 22.84221458435059 0.2347861081361771 23.54610252380371 0.2954344749450684 C 23.6468677520752 0.5384986996650696 23.81134033203125 1.230333089828491 23.81134033203125 2.643799066543579 C 23.81134033203125 4.334324836730957 23.68231201171875 4.88322639465332 23.59891319274902 5.061175346374512 C 22.75129699707031 5.126718521118164 18.36652183532715 5.171439170837402 12.60708999633789 5.171439170837402 Z" stroke="none"/>
        <path d="M 13.67537021636963 0.6714391708374023 C 7.427082061767578 0.6714391708374023 2.077478408813477 0.7308783531188965 0.4248676300048828 0.7925553321838379 C 0.3716659545898438 1.110321998596191 0.31134033203125 1.703814744949341 0.31134033203125 2.761449098587036 C 0.31134033203125 3.725951194763184 0.3672103881835938 4.276079177856445 0.41748046875 4.575825214385986 C 2.011791229248047 4.630420684814453 7.028495788574219 4.671439170837402 12.60708999633789 4.671439170837402 C 18.49977684020996 4.671439170837402 22.00676918029785 4.628128051757812 23.21026420593262 4.580663681030273 C 23.26053237915039 4.285889625549316 23.31134033203125 3.721314907073975 23.31134033203125 2.643799066543579 C 23.31134033203125 1.69607949256897 23.23554229736328 1.099958896636963 23.16585159301758 0.7722291946411133 C 22.10315322875977 0.7204480171203613 19.20688819885254 0.6714391708374023 13.67537021636963 0.6714391708374023 M 13.67537117004395 -0.3285655975341797 C 18.93437576293945 -0.3285655975341797 23.70296287536621 -0.2811965942382812 23.8388500213623 -0.160581111907959 C 24.1424503326416 0.1089091300964355 24.31134033203125 1.220768928527832 24.31134033203125 2.643799066543579 C 24.31134033203125 4.066819190979004 24.23633003234863 5.327838897705078 23.8388500213623 5.531528949737549 C 23.44137001037598 5.735229015350342 0.08880233764648438 5.700088977813721 -0.2401199340820312 5.531528949737549 C -0.5690402984619141 5.362968921661377 -0.68865966796875 4.184479236602783 -0.68865966796875 2.761449098587036 C -0.68865966796875 1.338428974151611 -0.5784187316894531 0.01278924942016602 -0.2401199340820312 -0.160581111907959 C -0.05323219299316406 -0.2563557624816895 7.184270858764648 -0.3285655975341797 13.67537117004395 -0.3285655975341797 Z" stroke="none" fill="#fff"/>
      </g>
    </g>
    <g transform="matrix(1, 0, 0, 1, 31.65, 384)" filter="url(#Tracé_30)">
      <g id="Tracé_30-2" data-name="Tracé 30" transform="translate(15.69 34.83)" fill="#fff">
        <path d="M 12.60708999633789 5.171439170837402 C 6.458250999450684 5.171439170837402 1.059869647026062 5.121953010559082 0.02121434360742569 5.058685779571533 C -0.04890349879860878 4.870043277740479 -0.18865966796875 4.300882816314697 -0.18865966796875 2.761449098587036 C -0.18865966796875 1.114408731460571 -0.04489710927009583 0.5097162127494812 0.02679632604122162 0.3105987906455994 C 1.16414737701416 0.2361068278551102 7.358777046203613 0.171439066529274 13.67537021636963 0.171439066529274 C 19.94915390014648 0.171439066529274 22.84221458435059 0.2347861081361771 23.54610252380371 0.2954344749450684 C 23.6468677520752 0.5384986996650696 23.81134033203125 1.230333089828491 23.81134033203125 2.643799066543579 C 23.81134033203125 4.334324836730957 23.68231201171875 4.88322639465332 23.59891319274902 5.061175346374512 C 22.75129699707031 5.126718521118164 18.36652183532715 5.171439170837402 12.60708999633789 5.171439170837402 Z" stroke="none"/>
        <path d="M 13.67537021636963 0.6714391708374023 C 7.427082061767578 0.6714391708374023 2.077478408813477 0.7308783531188965 0.4248676300048828 0.7925553321838379 C 0.3716659545898438 1.110321998596191 0.31134033203125 1.703814744949341 0.31134033203125 2.761449098587036 C 0.31134033203125 3.725951194763184 0.3672103881835938 4.276079177856445 0.41748046875 4.575825214385986 C 2.011791229248047 4.630420684814453 7.028495788574219 4.671439170837402 12.60708999633789 4.671439170837402 C 18.49977684020996 4.671439170837402 22.00676918029785 4.628128051757812 23.21026420593262 4.580663681030273 C 23.26053237915039 4.285889625549316 23.31134033203125 3.721314907073975 23.31134033203125 2.643799066543579 C 23.31134033203125 1.69607949256897 23.23554229736328 1.099958896636963 23.16585159301758 0.7722291946411133 C 22.10315322875977 0.7204480171203613 19.20688819885254 0.6714391708374023 13.67537021636963 0.6714391708374023 M 13.67537117004395 -0.3285655975341797 C 18.93437576293945 -0.3285655975341797 23.70296287536621 -0.2811965942382812 23.8388500213623 -0.160581111907959 C 24.1424503326416 0.1089091300964355 24.31134033203125 1.220768928527832 24.31134033203125 2.643799066543579 C 24.31134033203125 4.066819190979004 24.23633003234863 5.327838897705078 23.8388500213623 5.531528949737549 C 23.44137001037598 5.735229015350342 0.08880233764648438 5.700088977813721 -0.2401199340820312 5.531528949737549 C -0.5690402984619141 5.362968921661377 -0.68865966796875 4.184479236602783 -0.68865966796875 2.761449098587036 C -0.68865966796875 1.338428974151611 -0.5784187316894531 0.01278924942016602 -0.2401199340820312 -0.160581111907959 C -0.05323219299316406 -0.2563557624816895 7.184270858764648 -0.3285655975341797 13.67537117004395 -0.3285655975341797 Z" stroke="none" fill="#fff"/>
      </g>
    </g>
  </g>
</svg>
