<svg xmlns="http://www.w3.org/2000/svg" xmlns:xlink="http://www.w3.org/1999/xlink" width="55" height="56" viewBox="0 0 55 56">
  <defs>
    <radialGradient id="radial-gradient" cx="0.5" cy="0.5" r="0.5" gradientUnits="objectBoundingBox">
      <stop offset="0" stop-color="#f6f6f6"/>
      <stop offset="0.586" stop-color="#f6f6f6"/>
      <stop offset="0.611" stop-color="#f6f6f6"/>
      <stop offset="1" stop-color="#f6f6f6"/>
    </radialGradient>
    <filter id="Ellipse_12" x="0" y="0" width="55" height="56" filterUnits="userSpaceOnUse">
      <feOffset dy="1" input="SourceAlpha"/>
      <feGaussianBlur result="blur"/>
      <feFlood flood-opacity="0.161"/>
      <feComposite operator="in" in2="blur"/>
      <feComposite in="SourceGraphic"/>
    </filter>
    <filter id="Tracé_18" x="30" y="16" width="8" height="28" filterUnits="userSpaceOnUse">
      <feOffset dy="3" input="SourceAlpha"/>
      <feGaussianBlur result="blur-2"/>
      <feFlood flood-opacity="0.161"/>
      <feComposite operator="in" in2="blur-2"/>
      <feComposite in="SourceGraphic"/>
    </filter>
    <filter id="Tracé_20" x="17" y="16" width="8" height="28" filterUnits="userSpaceOnUse">
      <feOffset dy="3" input="SourceAlpha"/>
      <feGaussianBlur result="blur-3"/>
      <feFlood flood-opacity="0.161"/>
      <feComposite operator="in" in2="blur-3"/>
      <feComposite in="SourceGraphic"/>
    </filter>
  </defs>
  <g id="Groupe_45" data-name="Groupe 45" transform="translate(-226.649 -252)">
    <g transform="matrix(1, 0, 0, 1, 226.65, 252)" filter="url(#Ellipse_12)">
      <g id="Ellipse_12-2" data-name="Ellipse 12" stroke="#fff" stroke-width="3" fill="url(#radial-gradient)">
        <circle cx="27.5" cy="27.5" r="27.5" stroke="none"/>
        <circle cx="27.5" cy="27.5" r="26" fill="none"/>
      </g>
    </g>
    <g transform="matrix(1, 0, 0, 1, 226.65, 252)" filter="url(#Tracé_18)">
      <g id="Tracé_18-2" data-name="Tracé 18" transform="translate(30.33 40.31) rotate(-90)" fill="#888">
        <path d="M 12.60701942443848 7.171433448791504 C 6.511580467224121 7.171433448791504 1.130307078361511 7.106480121612549 0.05454209446907043 7.023362159729004 C -0.02717859111726284 6.7813401222229 -0.1886606216430664 6.020914554595947 -0.1886606216430664 3.79145359992981 C -0.1886606216430664 1.422057747840881 -0.01956857927143574 0.608181357383728 0.06125105544924736 0.3545478284358978 C 1.240523457527161 0.2565001845359802 7.41595983505249 0.1714336425065994 13.67536926269531 0.1714336425065994 C 19.89699935913086 0.1714336425065994 22.79020500183105 0.254264622926712 23.51094245910645 0.3335399329662323 C 23.62634468078613 0.6541691422462463 23.81134033203125 1.596150994300842 23.81134033203125 3.634583711624146 C 23.81134033203125 4.659483432769775 23.78870964050293 5.4024338722229 23.7401294708252 5.972673416137695 C 23.68499565124512 6.619832515716553 23.60545539855957 6.907291889190674 23.55828094482422 7.027329921722412 C 22.77566337585449 7.099621772766113 19.17942428588867 7.171433448791504 12.60701942443848 7.171433448791504 Z" stroke="none"/>
        <path d="M 13.67536926269531 0.6714329719543457 C 7.479188919067383 0.6714329719543457 2.132164001464844 0.7498807907104492 0.4658622741699219 0.8310818672180176 C 0.3975811004638672 1.245423793792725 0.3113384246826172 2.102994441986084 0.3113384246826172 3.791453123092651 C 0.3113384246826172 5.347048282623291 0.3928508758544922 6.15012788772583 0.4586296081542969 6.544936656951904 C 1.952428817749023 6.61057710647583 6.48744010925293 6.671432971954346 12.60701942443848 6.671432971954346 C 18.45537948608398 6.671432971954346 21.95689964294434 6.614603042602539 23.16793441772461 6.552473545074463 C 23.23636817932129 6.166200637817383 23.31134033203125 5.351109981536865 23.31134033203125 3.634583234786987 C 23.31134033203125 2.128519058227539 23.20662879943848 1.245977401733398 23.11730003356934 0.803004264831543 C 22.04926681518555 0.7355132102966309 19.16070747375488 0.6714329719543457 13.67536926269531 0.6714329719543457 M 13.67537307739258 -0.3285660743713379 C 18.93437576293945 -0.3285660743713379 23.70296287536621 -0.2654080390930176 23.8388500213623 -0.1045866012573242 C 24.14245986938477 0.2547330856323242 24.31134033203125 1.737213134765625 24.31134033203125 3.634583234786987 C 24.31134033203125 5.53195333480835 24.23633003234863 7.213303089141846 23.8388500213623 7.484893321990967 C 23.44137001037598 7.756493091583252 0.08879852294921875 7.709643363952637 -0.2401199340820312 7.484893321990967 C -0.56903076171875 7.260143280029297 -0.6886615753173828 5.688833236694336 -0.6886615753173828 3.791453123092651 C -0.6886615753173828 1.894083023071289 -0.5784206390380859 0.1265730857849121 -0.2401199340820312 -0.1045866012573242 C -0.05322837829589844 -0.2322864532470703 7.184274673461914 -0.3285660743713379 13.67537307739258 -0.3285660743713379 Z" stroke="none" fill="#888"/>
      </g>
    </g>
    <g transform="matrix(1, 0, 0, 1, 226.65, 252)" filter="url(#Tracé_20)">
      <g id="Tracé_20-2" data-name="Tracé 20" transform="translate(17.33 40.31) rotate(-90)" fill="#888">
        <path d="M 12.60701942443848 7.171433448791504 C 6.511580467224121 7.171433448791504 1.130307078361511 7.106480121612549 0.05454209446907043 7.023362159729004 C -0.02717859111726284 6.7813401222229 -0.1886606216430664 6.020914554595947 -0.1886606216430664 3.79145359992981 C -0.1886606216430664 1.422057747840881 -0.01956857927143574 0.608181357383728 0.06125105544924736 0.3545478284358978 C 1.240523457527161 0.2565001845359802 7.41595983505249 0.1714336425065994 13.67536926269531 0.1714336425065994 C 19.89699935913086 0.1714336425065994 22.79020500183105 0.254264622926712 23.51094245910645 0.3335399329662323 C 23.62634468078613 0.6541691422462463 23.81134033203125 1.596150994300842 23.81134033203125 3.634583711624146 C 23.81134033203125 4.659483432769775 23.78870964050293 5.4024338722229 23.7401294708252 5.972673416137695 C 23.68499565124512 6.619832515716553 23.60545539855957 6.907291889190674 23.55828094482422 7.027329921722412 C 22.77566337585449 7.099621772766113 19.17942428588867 7.171433448791504 12.60701942443848 7.171433448791504 Z" stroke="none"/>
        <path d="M 13.67536926269531 0.6714329719543457 C 7.479188919067383 0.6714329719543457 2.132164001464844 0.7498807907104492 0.4658622741699219 0.8310818672180176 C 0.3975811004638672 1.245423793792725 0.3113384246826172 2.102994441986084 0.3113384246826172 3.791453123092651 C 0.3113384246826172 5.347048282623291 0.3928508758544922 6.15012788772583 0.4586296081542969 6.544936656951904 C 1.952428817749023 6.61057710647583 6.48744010925293 6.671432971954346 12.60701942443848 6.671432971954346 C 18.45537948608398 6.671432971954346 21.95689964294434 6.614603042602539 23.16793441772461 6.552473545074463 C 23.23636817932129 6.166200637817383 23.31134033203125 5.351109981536865 23.31134033203125 3.634583234786987 C 23.31134033203125 2.128519058227539 23.20662879943848 1.245977401733398 23.11730003356934 0.803004264831543 C 22.04926681518555 0.7355132102966309 19.16070747375488 0.6714329719543457 13.67536926269531 0.6714329719543457 M 13.67537307739258 -0.3285660743713379 C 18.93437576293945 -0.3285660743713379 23.70296287536621 -0.2654080390930176 23.8388500213623 -0.1045866012573242 C 24.14245986938477 0.2547330856323242 24.31134033203125 1.737213134765625 24.31134033203125 3.634583234786987 C 24.31134033203125 5.53195333480835 24.23633003234863 7.213303089141846 23.8388500213623 7.484893321990967 C 23.44137001037598 7.756493091583252 0.08879852294921875 7.709643363952637 -0.2401199340820312 7.484893321990967 C -0.56903076171875 7.260143280029297 -0.6886615753173828 5.688833236694336 -0.6886615753173828 3.791453123092651 C -0.6886615753173828 1.894083023071289 -0.5784206390380859 0.1265730857849121 -0.2401199340820312 -0.1045866012573242 C -0.05322837829589844 -0.2322864532470703 7.184274673461914 -0.3285660743713379 13.67537307739258 -0.3285660743713379 Z" stroke="none" fill="#888"/>
      </g>
    </g>
  </g>
</svg>
