<svg xmlns="http://www.w3.org/2000/svg" xmlns:xlink="http://www.w3.org/1999/xlink" width="55" height="58" viewBox="0 0 55 58">
  <defs>
    <radialGradient id="radial-gradient" cx="0.5" cy="0.5" r="0.5" gradientUnits="objectBoundingBox">
      <stop offset="0" stop-color="#fa4f8a"/>
      <stop offset="0.586" stop-color="#fd4b88"/>
      <stop offset="0.798" stop-color="#ff4887"/>
      <stop offset="1" stop-color="#ff0058"/>
    </radialGradient>
    <filter id="Ellipse_9" x="0" y="0" width="55" height="58" filterUnits="userSpaceOnUse">
      <feOffset dy="3" input="SourceAlpha"/>
      <feGaussianBlur result="blur"/>
      <feFlood flood-opacity="0.161"/>
      <feComposite operator="in" in2="blur"/>
      <feComposite in="SourceGraphic"/>
    </filter>
    <filter id="Tracé_11" x="9.514" y="18.542" width="21.403" height="21.305" filterUnits="userSpaceOnUse">
      <feOffset dy="3" input="SourceAlpha"/>
      <feGaussianBlur result="blur-2"/>
      <feFlood flood-opacity="0.161"/>
      <feComposite operator="in" in2="blur-2"/>
      <feComposite in="SourceGraphic"/>
    </filter>
    <filter id="Tracé_12" x="40.098" y="17.326" width="4.638" height="22.277" filterUnits="userSpaceOnUse">
      <feOffset dy="3" input="SourceAlpha"/>
      <feGaussianBlur result="blur-3"/>
      <feFlood flood-opacity="0.161"/>
      <feComposite operator="in" in2="blur-3"/>
      <feComposite in="SourceGraphic"/>
    </filter>
    <filter id="Tracé_13" x="33.745" y="19.78" width="4.582" height="18.801" filterUnits="userSpaceOnUse">
      <feOffset dy="3" input="SourceAlpha"/>
      <feGaussianBlur result="blur-4"/>
      <feFlood flood-opacity="0.161"/>
      <feComposite operator="in" in2="blur-4"/>
      <feComposite in="SourceGraphic"/>
    </filter>
  </defs>
  <g id="Groupe_42" data-name="Groupe 42" transform="translate(-35.649 -253)">
    <g transform="matrix(1, 0, 0, 1, 35.65, 253)" filter="url(#Ellipse_9)">
      <g id="Ellipse_9-2" data-name="Ellipse 9" stroke="#fff" stroke-width="3" fill="url(#radial-gradient)">
        <circle cx="27.5" cy="27.5" r="27.5" stroke="none"/>
        <circle cx="27.5" cy="27.5" r="26" fill="none"/>
      </g>
    </g>
    <g transform="matrix(1, 0, 0, 1, 35.65, 253)" filter="url(#Tracé_11)">
      <g id="Tracé_11-2" data-name="Tracé 11" transform="translate(9.51 36.85) rotate(-90)" fill="#fff">
        <path d="M 15.31249237060547 20.90341186523438 C 14.87770175933838 20.90341186523438 14.37011241912842 20.90134239196777 13.77637195587158 20.89892196655273 C 12.95371150970459 20.89556121826172 11.92988204956055 20.89138221740723 10.71221160888672 20.89138221740723 C 10.21118545532227 20.89138221740723 9.676029205322266 20.8920783996582 9.101667404174805 20.89380073547363 C 7.186987400054932 20.87140083312988 5.706645488739014 20.86324691772461 4.517002105712891 20.8567008972168 C 2.110870838165283 20.84345245361328 0.7733054161071777 20.83609008789062 0.5435395836830139 20.70669937133789 C 0.5380824208259583 20.69746971130371 0.527817964553833 20.67784309387207 0.5098719596862793 20.63667106628418 C 0.3873319625854492 20.35557174682617 1.115361928939819 18.41806221008301 3.276481866836548 12.6666316986084 L 3.339368104934692 12.49927234649658 C 6.085257530212402 5.61320161819458 6.355054378509521 4.98503589630127 6.365181922912598 4.961681365966797 L 6.406511783599854 4.866451263427734 L 6.406981945037842 4.761561393737793 L 6.406981945037842 0.5000014305114746 L 12.07984161376953 0.5000014305114746 L 12.07984161376953 4.761561393737793 L 12.07984161376953 4.872561454772949 L 12.12425994873047 4.967666625976562 C 12.14654064178467 5.019620418548584 12.44989395141602 5.740886211395264 15.38833618164062 13.15944480895996 C 15.75132846832275 14.19752883911133 16.06440544128418 15.08772373199463 16.3335018157959 15.85288143157959 C 17.10533142089844 18.04747200012207 17.53049278259277 19.25636100769043 17.70590209960938 19.90327072143555 C 17.84596252441406 20.41978073120117 17.81364250183105 20.47890090942383 17.74927139282227 20.59668159484863 C 17.6458911895752 20.78581237792969 17.6458911895752 20.78581237792969 17.50276184082031 20.81715202331543 C 17.17322158813477 20.88929176330566 16.45013236999512 20.90341186523438 15.31249237060547 20.90341186523438 Z" stroke="none"/>
        <path d="M 6.906982421875 1.000001907348633 L 6.906982421875 4.972150802612305 L 6.823518753051758 5.161523818969727 C 6.804729461669922 5.205400466918945 6.487279891967773 5.954936027526855 3.805777549743652 12.67950916290283 L 3.744531631469727 12.84250164031982 C 2.115270614624023 17.17847061157227 1.252676010131836 19.47412109375 1.048099517822266 20.29284477233887 C 1.608009338378906 20.3406810760498 2.793693542480469 20.34721183776855 4.51975154876709 20.35671234130859 C 5.709212303161621 20.36325263977051 7.189111709594727 20.37139892578125 9.103307723999023 20.39379119873047 C 9.677009582519531 20.39207649230957 10.21162700653076 20.39138221740723 10.71221160888672 20.39138221740723 C 11.93109130859375 20.39138221740723 12.95560264587402 20.39556121826172 13.77880191802979 20.39892196655273 C 14.37158203125 20.40134048461914 14.87837219238281 20.40341186523438 15.31249237060547 20.40341186523438 C 15.846510887146 20.40341186523438 16.88810920715332 20.40340805053711 17.29793548583984 20.34705543518066 C 17.2315616607666 19.9134635925293 16.7279052734375 18.48136329650879 15.86185169219971 16.01883125305176 C 15.59348011016846 15.25575733184814 15.2813892364502 14.36835098266602 14.9196834564209 13.33399868011475 C 12.1464958190918 6.332688331604004 11.72900581359863 5.317525863647461 11.67108726501465 5.179759979248047 L 11.57983207702637 5.011430740356445 L 11.57983207702637 1.000001907348633 L 6.906982421875 1.000001907348633 M 5.906982421875 1.9073486328125e-06 L 12.57983207702637 1.9073486328125e-06 L 12.57983207702637 4.761562347412109 C 12.57983207702637 4.761562347412109 12.71125221252441 5.042942047119141 15.85696220397949 12.98482131958008 C 18.36030197143555 20.14410209655762 18.49294281005859 20.27856063842773 18.18801116943359 20.83648109436035 C 17.80673599243164 21.5340633392334 17.87786865234375 21.39138031005859 10.7122163772583 21.39138031005859 C 10.21054553985596 21.39138031005859 9.674625396728516 21.39207649230957 9.099362373352051 21.39381217956543 C 0.5432910919189453 21.29363059997559 0.3305816650390625 21.47657203674316 0.05153274536132812 20.83648109436035 C -0.1536788940429688 20.36575126647949 0.1515922546386719 19.5615119934082 2.873122215270996 12.31860160827637 C 5.692471504211426 5.248281478881836 5.906982421875 4.761562347412109 5.906982421875 4.761562347412109 L 5.906982421875 1.9073486328125e-06 Z" stroke="none" fill="#fff"/>
      </g>
    </g>
    <g transform="matrix(1, 0, 0, 1, 35.65, 253)" filter="url(#Tracé_12)">
      <path id="Tracé_12-2" data-name="Tracé 12" d="M71.324,269s2.775,4.382,2.775,8.941-2.775,9.3-2.775,9.3" transform="translate(-30.36 -251.14)" fill="none" stroke="#fff" stroke-width="2"/>
    </g>
    <g transform="matrix(1, 0, 0, 1, 35.65, 253)" filter="url(#Tracé_13)">
      <path id="Tracé_13-2" data-name="Tracé 13" d="M71.324,269s2.775,3.505,2.775,7.153-2.775,7.436-2.775,7.436" transform="translate(-36.77 -248.6)" fill="none" stroke="#fff" stroke-width="2"/>
    </g>
    <g id="Tracé_54" data-name="Tracé 54" transform="translate(74.129 299.852) rotate(-180)" fill="#fff">
      <path d="M -3.145030736923218 2.578214645385742 C -2.637011289596558 2.119013547897339 -1.999728560447693 1.60741925239563 -1.220110654830933 1.06581175327301 C -0.5700230002403259 0.6141918897628784 0.1520228683948517 0.1701052337884903 0.8693722486495972 -0.2296004146337509 C 0.4617294073104858 0.01096424646675587 0.2641450166702271 0.1431266069412231 -0.08290064334869385 0.3752717673778534 C -0.1892106384038925 0.4463717639446259 -0.3099906444549561 0.5271717309951782 -0.456120640039444 0.6239517331123352 C -0.5814806222915649 0.7069717645645142 -0.687480628490448 0.7766217589378357 -0.7813606262207031 0.8383117318153381 C -1.404592871665955 1.24782395362854 -1.509468674659729 1.316733717918396 -3.145030736923218 2.578214645385742 Z" stroke="none"/>
      <path d="M 4.806027889251709 -2.332340478897095 C 4.938228130340576 -2.332340478897095 5.045726299285889 -2.312403440475464 5.124639511108398 -2.269987821578979 C 5.903979301452637 -1.851087808609009 5.014859199523926 -1.924007654190063 2.203819274902344 -0.4177277088165283 C 0.6624893546104431 0.4521722793579102 0.7282593250274658 0.4392521381378174 -0.1800306439399719 1.040812253952026 C -1.19472062587738 1.712842226028442 -0.9469805955886841 1.512632250785828 -3.242850542068481 3.285292148590088 C -4.978331565856934 4.663142681121826 -5.258161067962646 5.368261814117432 -5.255830764770508 4.605031967163086 C -5.253490447998047 3.841792106628418 -3.768980503082275 2.22772216796875 -1.505380630493164 0.6551821231842041 C 0.5290042757987976 -0.7581264972686768 3.632641553878784 -2.332340478897095 4.806027889251709 -2.332340478897095 Z" stroke="none" fill="#fff"/>
    </g>
    <g id="Ellipse_26" data-name="Ellipse 26" transform="matrix(0.819, -0.574, 0.574, 0.819, 48.88, 262.392)" fill="#fff" stroke="#fff" stroke-width="1">
      <ellipse cx="2.5" cy="1" rx="2.5" ry="1" stroke="none"/>
      <ellipse cx="2.5" cy="1" rx="2" ry="0.5" fill="none"/>
    </g>
  </g>
</svg>
