<svg xmlns="http://www.w3.org/2000/svg" xmlns:xlink="http://www.w3.org/1999/xlink" width="55" height="58" viewBox="0 0 55 58">
  <defs>
    <radialGradient id="radial-gradient" cx="0.5" cy="0.5" r="0.5" gradientUnits="objectBoundingBox">
      <stop offset="0" stop-color="#fa4f8a"/>
      <stop offset="0.586" stop-color="#fd4b88"/>
      <stop offset="0.798" stop-color="#ff4887"/>
      <stop offset="1" stop-color="#ff0058"/>
    </radialGradient>
    <filter id="Ellipse_34" x="0" y="0" width="55" height="58" filterUnits="userSpaceOnUse">
      <feOffset dy="3" input="SourceAlpha"/>
      <feGaussianBlur result="blur"/>
      <feFlood flood-opacity="0.161"/>
      <feComposite operator="in" in2="blur"/>
      <feComposite in="SourceGraphic"/>
    </filter>
    <filter id="Tracé_60" x="16.942" y="15.873" width="22.117" height="25.127" filterUnits="userSpaceOnUse">
      <feOffset dy="3" input="SourceAlpha"/>
      <feGaussianBlur result="blur-2"/>
      <feFlood flood-opacity="0.161"/>
      <feComposite operator="in" in2="blur-2"/>
      <feComposite in="SourceGraphic"/>
    </filter>
    <clipPath id="clip">
      <use xlink:href="#fill"/>
    </clipPath>
    <clipPath id="clip-2">
      <use xlink:href="#fill-2"/>
    </clipPath>
  </defs>
  <g id="Groupe_49" data-name="Groupe 49" transform="translate(-226.649 -384)">
    <g transform="matrix(1, 0, 0, 1, 226.65, 384)" filter="url(#Ellipse_34)">
      <g id="Ellipse_34-2" data-name="Ellipse 34" stroke="#fff" stroke-width="3" fill="url(#radial-gradient)">
        <circle cx="27.5" cy="27.5" r="27.5" stroke="none"/>
        <circle cx="27.5" cy="27.5" r="26" fill="none"/>
      </g>
    </g>
    <g id="Tracé_59" data-name="Tracé 59" transform="translate(265.129 430.852) rotate(-180)" fill="#fff">
      <path d="M -3.145030736923218 2.578214645385742 C -2.637011289596558 2.119013547897339 -1.999728560447693 1.60741925239563 -1.220110654830933 1.06581175327301 C -0.5700230002403259 0.6141918897628784 0.1520228683948517 0.1701052337884903 0.8693722486495972 -0.2296004146337509 C 0.4617294073104858 0.01096424646675587 0.2641450166702271 0.1431266069412231 -0.08290064334869385 0.3752717673778534 C -0.1892106384038925 0.4463717639446259 -0.3099906444549561 0.5271717309951782 -0.456120640039444 0.6239517331123352 C -0.5814806222915649 0.7069717645645142 -0.687480628490448 0.7766217589378357 -0.7813606262207031 0.8383117318153381 C -1.404592871665955 1.24782395362854 -1.509468674659729 1.316733717918396 -3.145030736923218 2.578214645385742 Z" stroke="none"/>
      <path d="M 4.806027889251709 -2.332340478897095 C 4.938228130340576 -2.332340478897095 5.045726299285889 -2.312403440475464 5.124639511108398 -2.269987821578979 C 5.903979301452637 -1.851087808609009 5.014859199523926 -1.924007654190063 2.203819274902344 -0.4177277088165283 C 0.6624893546104431 0.4521722793579102 0.7282593250274658 0.4392521381378174 -0.1800306439399719 1.040812253952026 C -1.19472062587738 1.712842226028442 -0.9469805955886841 1.512632250785828 -3.242850542068481 3.285292148590088 C -4.978331565856934 4.663142681121826 -5.258161067962646 5.368261814117432 -5.255830764770508 4.605031967163086 C -5.253490447998047 3.841792106628418 -3.768980503082275 2.22772216796875 -1.505380630493164 0.6551821231842041 C 0.5290042757987976 -0.7581264972686768 3.632641553878784 -2.332340478897095 4.806027889251709 -2.332340478897095 Z" stroke="none" fill="#fff"/>
    </g>
    <g id="Ellipse_35" data-name="Ellipse 35" transform="matrix(0.819, -0.574, 0.574, 0.819, 239.88, 393.392)" fill="#fff" stroke="#fff" stroke-width="1">
      <ellipse cx="2.5" cy="1" rx="2.5" ry="1" stroke="none"/>
      <ellipse cx="2.5" cy="1" rx="2" ry="0.5" fill="none"/>
    </g>
    <g transform="matrix(1, 0, 0, 1, 226.65, 384)" filter="url(#Tracé_60)">
      <g id="Tracé_60-2" data-name="Tracé 60" transform="translate(16.94 15.87)" fill="#fff">
        <path d="M 21.55130958557129 21.62719917297363 C 21.48635864257812 21.62719917297363 21.41390800476074 21.62519073486328 21.33315849304199 21.62302017211914 C 21.22228813171387 21.62003898620605 21.09663963317871 21.61667060852051 20.95234870910645 21.61667060852051 L 0.9760888814926147 21.61667060852051 C 0.7560514211654663 21.61667060852051 0.6013855338096619 21.6104850769043 0.5141488909721375 21.59824752807617 C 0.4999984502792358 21.47963905334473 0.4999988675117493 21.25593948364258 0.4999988675117493 21.05389022827148 L 0.534838855266571 0.9377499222755432 L 0.534808874130249 0.8637299537658691 C 0.5347164869308472 0.7334160208702087 0.5346245765686035 0.6003618240356445 0.5386033654212952 0.5029192566871643 C 0.6212714314460754 0.4997395575046539 0.719865083694458 0.499739944934845 0.7801488637924194 0.499739944934845 L 0.8740388751029968 0.499849945306778 L 0.9863788485527039 0.4999699294567108 L 16.66092681884766 0.4999699294567108 C 17.46181297302246 1.294713258743286 20.3529052734375 4.522069931030273 21.61670875549316 5.94297981262207 L 21.61670875549316 21.30459976196289 C 21.61670875549316 21.46351051330566 21.61083984375 21.56384086608887 21.60411834716797 21.62661170959473 C 21.58880615234375 21.62698173522949 21.57130241394043 21.62719917297363 21.55130958557129 21.62719917297363 Z" stroke="none"/>
        <path d="M 1.034732818603516 0.999969482421875 L 0.9999980926513672 21.05389022827148 C 0.9999980926513672 21.07459831237793 0.9999980926513672 21.09559059143066 1.00001335144043 21.11667060852051 L 20.95234870910645 21.11667060852051 C 21.01020812988281 21.11667060852051 21.06487655639648 21.11717987060547 21.11670875549316 21.11798095703125 L 21.11670875549316 6.133190155029297 C 19.56386375427246 4.388528823852539 17.28710174560547 1.859146118164062 16.45244216918945 0.999969482421875 L 1.034732818603516 0.999969482421875 M 0.7801475524902344 -0.000263214111328125 C 0.8433990478515625 -0.000263214111328125 0.9119453430175781 -3.0517578125e-05 0.9863796234130859 -3.0517578125e-05 L 16.8607292175293 -3.0517578125e-05 C 17.55580902099609 0.6188697814941406 22.11670875549316 5.752880096435547 22.11670875549316 5.752880096435547 L 22.11670875549316 21.30459976196289 C 22.11670875549316 22.28178024291992 21.92952919006348 22.11667060852051 20.95234870910645 22.11667060852051 L 0.9760894775390625 22.11667060852051 C -0.00109100341796875 22.11667060852051 -1.9073486328125e-06 22.02780914306641 -1.9073486328125e-06 21.05063056945801 L 0.03483963012695312 0.9368801116943359 C 0.03483963012695312 0.0341339111328125 0.013031005859375 -0.000263214111328125 0.7801475524902344 -0.000263214111328125 Z" stroke="none" fill="#fff"/>
      </g>
    </g>
    <g id="Rectangle_13" data-name="Rectangle 13" transform="translate(246.245 398.988)" fill="#fff" stroke="#fa4f8a" stroke-width="1">
      <rect width="11.501" height="7.077" stroke="none"/>
      <rect x="0.5" y="0.5" width="10.501" height="6.077" fill="none"/>
    </g>
    <g id="Rectangle_14" data-name="Rectangle 14" transform="translate(248.014 399.873)" fill="#fff" stroke="#fa4f8a" stroke-width="1">
      <rect id="fill" width="0.885" height="5.308" stroke="none"/>
      <path d="M0,0.5h0.8846681714057922M0.5,0v5.308008670806885M0.8846681714057922,4.808008670806885h-0.8846681714057922M0.38466817140579224,5.308008670806885v-5.308008670806885" fill="none" clip-path="url(#clip)"/>
    </g>
    <g id="Rectangle_15" data-name="Rectangle 15" transform="translate(246.245 414.912)" fill="#fff" stroke="#fa4f8a" stroke-width="1">
      <rect width="16.809" height="5.308" rx="1" stroke="none"/>
      <rect x="0.5" y="0.5" width="15.809" height="4.308" rx="0.5" fill="none"/>
    </g>
    <g id="Rectangle_16" data-name="Rectangle 16" transform="translate(248.014 416.681)" fill="#fff" stroke="#fa4f8a" stroke-width="1">
      <rect id="fill-2" width="13.27" height="0.885" rx="0.442" stroke="none"/>
      <path d="M0,0.3846680521965027h13.27002239227295M12.77002239227295,0v0.8846680521965027M13.27002239227295,0.5h-13.27002239227295M0.5,0.8846680521965027v-0.8846680521965027" fill="none" clip-path="url(#clip-2)"/>
    </g>
  </g>
</svg>
