<svg xmlns="http://www.w3.org/2000/svg" xmlns:xlink="http://www.w3.org/1999/xlink" width="55" height="56" viewBox="0 0 55 56">
  <defs>
    <radialGradient id="radial-gradient" cx="0.5" cy="0.5" r="0.5" gradientUnits="objectBoundingBox">
      <stop offset="0" stop-color="#f6f6f6"/>
      <stop offset="0.586" stop-color="#f6f6f6"/>
      <stop offset="0.611" stop-color="#f6f6f6"/>
      <stop offset="1" stop-color="#f6f6f6"/>
    </radialGradient>
    <filter id="Ellipse_10" x="0" y="0" width="55" height="56" filterUnits="userSpaceOnUse">
      <feOffset dy="1" input="SourceAlpha"/>
      <feGaussianBlur result="blur"/>
      <feFlood flood-opacity="0.161"/>
      <feComposite operator="in" in2="blur"/>
      <feComposite in="SourceGraphic"/>
    </filter>
    <filter id="Tracé_14" x="10.241" y="18.653" width="21.517" height="21.403" filterUnits="userSpaceOnUse">
      <feOffset dy="3" input="SourceAlpha"/>
      <feGaussianBlur result="blur-2"/>
      <feFlood flood-opacity="0.161"/>
      <feComposite operator="in" in2="blur-2"/>
      <feComposite in="SourceGraphic"/>
    </filter>
    <filter id="Tracé_15" x="40.992" y="17.432" width="4.653" height="22.374" filterUnits="userSpaceOnUse">
      <feOffset dy="3" input="SourceAlpha"/>
      <feGaussianBlur result="blur-3"/>
      <feFlood flood-opacity="0.161"/>
      <feComposite operator="in" in2="blur-3"/>
      <feComposite in="SourceGraphic"/>
    </filter>
    <filter id="Tracé_16" x="34.604" y="19.9" width="4.597" height="18.878" filterUnits="userSpaceOnUse">
      <feOffset dy="3" input="SourceAlpha"/>
      <feGaussianBlur result="blur-4"/>
      <feFlood flood-opacity="0.161"/>
      <feComposite operator="in" in2="blur-4"/>
      <feComposite in="SourceGraphic"/>
    </filter>
  </defs>
  <g id="Groupe_43" data-name="Groupe 43" transform="translate(-99.649 -253)">
    <g transform="matrix(1, 0, 0, 1, 99.65, 253)" filter="url(#Ellipse_10)">
      <g id="Ellipse_10-2" data-name="Ellipse 10" stroke="#fff" stroke-width="3" fill="url(#radial-gradient)">
        <circle cx="27.5" cy="27.5" r="27.5" stroke="none"/>
        <circle cx="27.5" cy="27.5" r="26" fill="none"/>
      </g>
    </g>
    <g transform="matrix(1, 0, 0, 1, 99.65, 253)" filter="url(#Tracé_14)">
      <g id="Tracé_14-2" data-name="Tracé 14" transform="translate(10.24 37.06) rotate(-90)" fill="#888">
        <path d="M 15.39398765563965 21.01728630065918 C 14.95688819885254 21.01729583740234 14.44658851623535 21.01520538330078 13.84966850280762 21.01276588439941 C 13.02259826660156 21.00939559936523 11.99326801300049 21.00519561767578 10.769118309021 21.00519561767578 C 10.26541709899902 21.00519561767578 9.727499008178711 21.00589179992676 9.15007495880127 21.00762367248535 C 7.225254058837891 20.98510551452637 5.737037658691406 20.9769115447998 4.541088104248047 20.9703254699707 C 2.118916988372803 20.95699691772461 0.7732051014900208 20.9496021270752 0.5445246696472168 20.81886291503906 C 0.5390613675117493 20.80972671508789 0.5286235213279724 20.78990364074707 0.5101481080055237 20.74751472473145 C 0.386518120765686 20.46393585205078 1.11853814125061 18.51580619812012 3.291518211364746 12.73283576965332 L 3.354655027389526 12.56480407714844 C 6.115304470062256 5.641709327697754 6.386430740356445 5.010489940643311 6.396608352661133 4.987025737762451 L 6.437938213348389 4.891785621643066 L 6.438407897949219 4.786895275115967 L 6.438407897949219 0.5000054836273193 L 12.14676856994629 0.5000054836273193 L 12.14676856994629 4.786895275115967 L 12.14676856994629 4.897895336151123 L 12.19124317169189 4.993134021759033 C 12.21396255493164 5.046141624450684 12.52027130126953 5.774651050567627 15.4727029800415 13.22852897644043 C 15.83764743804932 14.27220058441162 16.15242576599121 15.1672306060791 16.4229679107666 15.93649578094482 C 17.19888877868652 18.14274597167969 17.62630844116211 19.35806465148926 17.80267906188965 20.00849533081055 C 17.94374847412109 20.52875518798828 17.91108894348145 20.58850479125977 17.84602737426758 20.70753479003906 C 17.74152755737305 20.89874458312988 17.74152755737305 20.89874458312988 17.59646797180176 20.93050575256348 C 17.26494789123535 21.00308609008789 16.5378589630127 21.01728630065918 15.39398765563965 21.01728630065918 Z" stroke="none"/>
        <path d="M 6.938407897949219 0.9999961853027344 L 6.938407897949219 4.997486114501953 L 6.855091094970703 5.186525344848633 C 6.837812423706055 5.226814270019531 6.524572372436523 5.965288162231445 3.821051597595215 12.74504852294922 L 3.759617805480957 12.90853595733643 C 2.117921829223633 17.27761650085449 1.250234603881836 19.5868091583252 1.047012329101562 20.40556526184082 C 1.60791015625 20.45417785644531 2.802469253540039 20.46075248718262 4.543838500976562 20.47033500671387 C 5.73961067199707 20.4769172668457 7.227397918701172 20.48510360717773 9.151714324951172 20.50761413574219 C 9.728457450866699 20.50588989257812 10.26648330688477 20.50518608093262 10.76972770690918 20.50518608093262 C 11.99507808685303 20.50518608093262 13.02481842041016 20.50938606262207 13.85222816467285 20.51276588439941 C 14.44804763793945 20.51520538330078 14.95743846893311 20.51728630065918 15.3938684463501 20.51728630065918 C 15.9332275390625 20.51728630065918 16.98703002929688 20.51728248596191 17.39603614807129 20.4598217010498 C 17.33249473571777 20.02967262268066 16.82541465759277 18.5878734588623 15.9512882232666 16.10238647460938 C 15.68148517608643 15.33522605895996 15.36769008636475 14.44297218322754 15.00405025482178 13.40308380126953 C 12.21546363830566 6.362895011901855 11.7961368560791 5.343320846557617 11.73804092407227 5.205131530761719 L 11.64676856994629 5.036685943603516 L 11.64676856994629 0.9999961853027344 L 6.938407897949219 0.9999961853027344 M 5.938407897949219 -3.814697265625e-06 L 12.64676856994629 -3.814697265625e-06 L 12.64676856994629 4.786895751953125 C 12.64676856994629 4.786895751953125 12.7788782119751 5.069765090942383 15.94132804870605 13.05390548706055 C 18.45797729492188 20.25127601623535 18.59132766723633 20.38645553588867 18.2847785949707 20.94733619689941 C 17.90147399902344 21.64862823486328 17.97351264953613 21.50518989562988 10.76972961425781 21.50518989562988 C 10.26538944244385 21.50518989562988 9.726092338562012 21.50589179992676 9.147768020629883 21.50763511657715 C 0.5461883544921875 21.40692520141602 0.3323478698730469 21.59083557128906 0.05180740356445312 20.94733619689941 C -0.1544914245605469 20.47410583496094 0.1523990631103516 19.66557502746582 2.888398170471191 12.38413524627686 C 5.722758293151855 5.276205062866211 5.938407897949219 4.786895751953125 5.938407897949219 4.786895751953125 L 5.938407897949219 -3.814697265625e-06 Z" stroke="none" fill="#888"/>
      </g>
    </g>
    <g transform="matrix(1, 0, 0, 1, 99.65, 253)" filter="url(#Tracé_15)">
      <path id="Tracé_15-2" data-name="Tracé 15" d="M71.324,269s2.79,4.4,2.79,8.988-2.79,9.345-2.79,9.345" transform="translate(-29.47 -251.03)" fill="none" stroke="#888" stroke-width="2"/>
    </g>
    <g transform="matrix(1, 0, 0, 1, 99.65, 253)" filter="url(#Tracé_16)">
      <path id="Tracé_16-2" data-name="Tracé 16" d="M71.324,269s2.79,3.524,2.79,7.191-2.79,7.476-2.79,7.476" transform="translate(-35.91 -248.48)" fill="none" stroke="#888" stroke-width="2"/>
    </g>
    <g id="Rectangle_3" data-name="Rectangle 3" transform="translate(111.218 293.465) rotate(-45)" fill="#888" stroke="#f6f6f6" stroke-width="1">
      <rect width="41.804" height="5.133" stroke="none"/>
      <rect x="0.5" y="0.5" width="40.804" height="4.133" fill="none"/>
    </g>
  </g>
</svg>
