<svg xmlns="http://www.w3.org/2000/svg" xmlns:xlink="http://www.w3.org/1999/xlink" width="55" height="58" viewBox="0 0 55 58">
  <defs>
    <radialGradient id="radial-gradient" cx="0.5" cy="0.5" r="0.5" gradientUnits="objectBoundingBox">
      <stop offset="0" stop-color="#fa4f8a"/>
      <stop offset="0.712" stop-color="#ff4887"/>
      <stop offset="0.858" stop-color="#ff347a"/>
      <stop offset="1" stop-color="#ff0058"/>
    </radialGradient>
    <filter id="Ellipse_11" x="0" y="0" width="55" height="58" filterUnits="userSpaceOnUse">
      <feOffset dy="3" input="SourceAlpha"/>
      <feGaussianBlur result="blur"/>
      <feFlood flood-opacity="0.161"/>
      <feComposite operator="in" in2="blur"/>
      <feComposite in="SourceGraphic"/>
    </filter>
    <filter id="Tracé_17" x="17" y="15" width="25" height="28" filterUnits="userSpaceOnUse">
      <feOffset dy="3" input="SourceAlpha"/>
      <feGaussianBlur result="blur-2"/>
      <feFlood flood-opacity="0.161"/>
      <feComposite operator="in" in2="blur-2"/>
      <feComposite in="SourceGraphic"/>
    </filter>
  </defs>
  <g id="Groupe_44" data-name="Groupe 44" transform="translate(-164.649 -252)">
    <g transform="matrix(1, 0, 0, 1, 164.65, 252)" filter="url(#Ellipse_11)">
      <g id="Ellipse_11-2" data-name="Ellipse 11" stroke="#fff" stroke-width="3" fill="url(#radial-gradient)">
        <circle cx="27.5" cy="27.5" r="27.5" stroke="none"/>
        <circle cx="27.5" cy="27.5" r="26" fill="none"/>
      </g>
    </g>
    <g transform="matrix(1, 0, 0, 1, 164.65, 252)" filter="url(#Tracé_17)">
      <g id="Tracé_17-2" data-name="Tracé 17" transform="translate(39.42 15.39) rotate(90)" fill="#fff">
        <path d="M 11.39581871032715 21.9237060546875 C 6.408478736877441 21.9237060546875 3.421768665313721 21.90147590637207 1.923478603363037 21.78421592712402 C 0.6812986731529236 21.68699645996094 0.5653586387634277 21.55762672424316 0.3343686461448669 21.29990577697754 C 0.3029900789260864 21.2648983001709 0.2686072289943695 21.22653579711914 0.2304677218198776 21.18566513061523 C 0.09102065116167068 20.92960929870605 0.0260538998991251 20.72401237487793 0.3152486383914948 19.87385559082031 C 0.6471586227416992 18.89816665649414 1.41269862651825 17.20486640930176 2.802448749542236 14.13088607788086 C 3.216614246368408 13.21478080749512 3.685877323150635 12.17682647705078 4.218382835388184 10.99275207519531 C 5.333240509033203 8.756651878356934 6.268759727478027 6.859315872192383 7.020588874816895 5.334536075592041 C 8.708128929138184 1.912056088447571 9.63770866394043 0.02677605487406254 10.28269863128662 -1.024483919143677 C 10.92223834991455 -2.066856861114502 11.16155624389648 -2.076207637786865 11.38964366912842 -2.076291561126709 C 11.91234970092773 -2.062790393829346 11.96241664886475 -2.049071311950684 13.68337821960449 0.9473660588264465 C 14.77662372589111 2.850868225097656 16.60568618774414 6.035512924194336 19.71249008178711 11.02966403961182 C 21.85222244262695 14.98789024353027 23.17622184753418 17.71506309509277 23.76037788391113 19.36737632751465 C 24.26656913757324 20.79918670654297 24.10065841674805 21.09695625305176 24.02091789245605 21.24005699157715 C 23.95199775695801 21.36376571655273 23.82368850708008 21.59403610229492 22.03325843811035 21.73629570007324 C 20.33586883544922 21.87115669250488 17.35340881347656 21.9237060546875 11.39581871032715 21.9237060546875 Z" stroke="none"/>
        <path d="M 11.38460159301758 -1.576211929321289 C 11.3491325378418 -1.575681686401367 11.33501243591309 -1.572774887084961 11.33518981933594 -1.573057174682617 C 11.27634239196777 -1.546422958374023 11.03505516052246 -1.369195938110352 10.38472843170166 -0.2068233489990234 C 9.758188247680664 0.9130458831787109 8.847518920898438 2.759975433349609 7.469038009643555 5.555656433105469 C 6.718011856079102 7.078824043273926 5.783767700195312 8.973555564880371 4.670392990112305 11.20672416687012 C 4.139322280883789 12.38757228851318 3.671255111694336 13.42290019989014 3.258018493652344 14.33693599700928 C 1.87470817565918 17.39666557312012 1.11271858215332 19.08211517333984 0.7886085510253906 20.03488540649414 C 0.5952186584472656 20.6033992767334 0.5895061492919922 20.76398086547852 0.6482315063476562 20.9012508392334 C 0.6688957214355469 20.92399406433105 0.6882915496826172 20.94563674926758 0.7067184448242188 20.96619606018066 C 0.8235092163085938 21.09651565551758 0.8252677917480469 21.09722518920898 0.8703784942626953 21.11540603637695 C 0.9894790649414062 21.16343688964844 1.275638580322266 21.23197555541992 1.962488174438477 21.28573608398438 C 3.444408416748047 21.4017162322998 6.421138763427734 21.4237060546875 11.39581871032715 21.4237060546875 C 16.4936580657959 21.4237060546875 19.30685806274414 21.3862361907959 21.10589790344238 21.29438591003418 C 22.93750953674316 21.20086860656738 23.45027351379395 21.050537109375 23.59334754943848 20.97600173950195 C 23.6446647644043 20.83205986022949 23.59045791625977 20.38681793212891 23.28896903991699 19.53403663635254 C 22.71422958374023 17.90834617614746 21.40280914306641 15.20858383178711 19.27990531921387 11.28086566925049 C 16.17330551147461 6.286629676818848 14.3437557220459 3.101104736328125 13.24979877471924 1.196386337280273 C 12.38628196716309 -0.3071212768554688 11.75946998596191 -1.398469924926758 11.51971530914307 -1.565708160400391 C 11.50400161743164 -1.568614959716797 11.46608543395996 -1.573675155639648 11.38460159301758 -1.576211929321289 M 11.39581871032715 -2.5762939453125 C 12.80954837799072 -2.539924621582031 12.31171894073486 -1.812494277954102 20.14508819580078 10.77848625183105 C 24.92643928527832 19.62200546264648 24.82404899597168 20.82592582702637 24.45769882202148 21.4834156036377 C 24.03993797302246 22.2331657409668 22.86985778808594 22.4237060546875 11.39581871032715 22.4237060546875 C -0.07822227478027344 22.4237060546875 0.6067790985107422 22.29474639892578 -0.1762218475341797 21.4834156036377 C -0.7423419952392578 20.4673957824707 -0.4033412933349609 20.05070686340332 3.766508102416992 10.77848625183105 C 9.764398574829102 -1.251314163208008 10.12770843505859 -2.5762939453125 11.39581871032715 -2.5762939453125 Z" stroke="none" fill="#fff"/>
      </g>
    </g>
    <g id="Tracé_53" data-name="Tracé 53" transform="translate(203.633 298.56) rotate(-180)" fill="#fff">
      <path d="M -3.145030736923218 2.578214645385742 C -2.637011289596558 2.119013547897339 -1.999728560447693 1.60741925239563 -1.220110654830933 1.06581175327301 C -0.5700230002403259 0.6141918897628784 0.1520228683948517 0.1701052337884903 0.8693722486495972 -0.2296004146337509 C 0.4617294073104858 0.01096424646675587 0.2641450166702271 0.1431266069412231 -0.08290064334869385 0.3752717673778534 C -0.1892106384038925 0.4463717639446259 -0.3099906444549561 0.5271717309951782 -0.456120640039444 0.6239517331123352 C -0.5814806222915649 0.7069717645645142 -0.687480628490448 0.7766217589378357 -0.7813606262207031 0.8383117318153381 C -1.404592871665955 1.24782395362854 -1.509468674659729 1.316733717918396 -3.145030736923218 2.578214645385742 Z" stroke="none"/>
      <path d="M 4.806027889251709 -2.332340478897095 C 4.938228130340576 -2.332340478897095 5.045726299285889 -2.312403440475464 5.124639511108398 -2.269987821578979 C 5.903979301452637 -1.851087808609009 5.014859199523926 -1.924007654190063 2.203819274902344 -0.4177277088165283 C 0.6624893546104431 0.4521722793579102 0.7282593250274658 0.4392521381378174 -0.1800306439399719 1.040812253952026 C -1.19472062587738 1.712842226028442 -0.9469805955886841 1.512632250785828 -3.242850542068481 3.285292148590088 C -4.978331565856934 4.663142681121826 -5.258161067962646 5.368261814117432 -5.255830764770508 4.605031967163086 C -5.253490447998047 3.841792106628418 -3.768980503082275 2.22772216796875 -1.505380630493164 0.6551821231842041 C 0.5290042757987976 -0.7581264972686768 3.632641553878784 -2.332340478897095 4.806027889251709 -2.332340478897095 Z" stroke="none" fill="#fff"/>
    </g>
    <g id="Ellipse_25" data-name="Ellipse 25" transform="matrix(0.819, -0.574, 0.574, 0.819, 178.385, 261.1)" fill="#fff" stroke="#fff" stroke-width="1">
      <ellipse cx="2.5" cy="1" rx="2.5" ry="1" stroke="none"/>
      <ellipse cx="2.5" cy="1" rx="2" ry="0.5" fill="none"/>
    </g>
  </g>
</svg>
