<svg xmlns="http://www.w3.org/2000/svg" xmlns:xlink="http://www.w3.org/1999/xlink" width="250" height="313.761" viewBox="0 0 250 313.761">
  <defs>
    <filter id="Tracé_145" x="0" y="7" width="250" height="306.761" filterUnits="userSpaceOnUse">
      <feOffset dy="3" input="SourceAlpha"/>
      <feGaussianBlur result="blur"/>
      <feFlood flood-opacity="0.161"/>
      <feComposite operator="in" in2="blur"/>
      <feComposite in="SourceGraphic"/>
    </filter>
    <filter id="Tracé_146" x="3" y="0" width="244" height="37.134" filterUnits="userSpaceOnUse">
      <feOffset dy="1" input="SourceAlpha"/>
      <feGaussianBlur result="blur-2"/>
      <feFlood flood-opacity="0.161"/>
      <feComposite operator="in" in2="blur-2"/>
      <feComposite in="SourceGraphic"/>
    </filter>
  </defs>
  <g id="Groupe_54" data-name="Groupe 54" transform="translate(-32 -544)">
    <g transform="matrix(1, 0, 0, 1, 32, 544)" filter="url(#Tracé_145)">
      <g id="Tracé_145-2" data-name="Tracé 145" transform="translate(0 7)" fill="rgba(246,246,246,0.07)">
        <path d="M 125.5830307006836 300.1093139648438 L 5.995124816894531 264.6444702148438 L 5.508041858673096 264.5 L 5 264.5 C 4.172916889190674 264.5 3.5 263.8270874023438 3.5 263 L 3.5 4.999998569488525 C 3.5 4.172914981842041 4.172916889190674 3.499998569488525 5 3.499998569488525 L 245 3.499998569488525 C 245.8270874023438 3.499998569488525 246.5 4.172914981842041 246.5 4.999998569488525 L 246.5 263 C 246.5 263.8270874023438 245.8270874023438 264.5 245 264.5 L 244.4871673583984 264.5 L 243.9958801269531 264.6471252441406 L 125.5830307006836 300.1093139648438 Z" stroke="none"/>
        <path d="M 7 6.999969482421875 L 7 261.2917785644531 L 125.5781555175781 296.4571838378906 L 243 261.2917785644531 L 243 6.999969482421875 L 7 6.999969482421875 M 5 -3.0517578125e-05 L 245 -3.0517578125e-05 C 247.7614135742188 -3.0517578125e-05 250 2.238555908203125 250 4.999969482421875 L 250 262.9999694824219 C 250 265.7613830566406 247.7614135742188 267.9999694824219 245 267.9999694824219 L 125.5879516601562 303.7613830566406 L 5 267.9999694824219 C 2.238540649414062 267.9999694824219 0 265.7613830566406 0 262.9999694824219 L 0 4.999969482421875 C 0 2.238555908203125 2.238540649414062 -3.0517578125e-05 5 -3.0517578125e-05 Z" stroke="none" fill="#fff"/>
      </g>
    </g>
    <g transform="matrix(1, 0, 0, 1, 32, 544)" filter="url(#Tracé_146)">
      <g id="Tracé_146-2" data-name="Tracé 146" transform="translate(3)" fill="#f6f6f6">
        <path d="M 237.5985260009766 33.63399505615234 L 6.083615779876709 33.62833786010742 L 2.779415130615234 2.500016689300537 L 241.1946105957031 2.500016689300537 L 237.5985260009766 33.63399505615234 Z" stroke="none"/>
        <path d="M 5.558837890625 5.000017166137695 L 8.332290649414062 31.12841033935547 L 235.3706970214844 31.13390922546387 L 238.3892517089844 5.000017166137695 L 5.558837890625 5.000017166137695 M 0 1.52587890625e-05 L 244 1.52587890625e-05 L 239.8263854980469 36.13401794433594 L 3.834930419921875 36.12830352783203 L 0 1.52587890625e-05 Z" stroke="none" fill="#fff"/>
      </g>
    </g>
  </g>
</svg>
