<svg xmlns="http://www.w3.org/2000/svg" xmlns:xlink="http://www.w3.org/1999/xlink" width="50" height="62" viewBox="0 0 50 62">
  <defs>
    <radialGradient id="radial-gradient" cx="0.5" cy="0.5" r="0.5" gradientUnits="objectBoundingBox">
      <stop offset="0" stop-color="#fa4f8a"/>
      <stop offset="0.325" stop-color="#fd4b88"/>
      <stop offset="0.532" stop-color="#ff4887"/>
      <stop offset="0.892" stop-color="#ff2872"/>
      <stop offset="1" stop-color="#fc3278"/>
    </radialGradient>
    <filter id="Tracé_157" x="0" y="3" width="50" height="53" filterUnits="userSpaceOnUse">
      <feOffset dy="3" input="SourceAlpha"/>
      <feGaussianBlur result="blur"/>
      <feFlood flood-opacity="0.161"/>
      <feComposite operator="in" in2="blur"/>
      <feComposite in="SourceGraphic"/>
    </filter>
    <filter id="D" x="1.5" y="0" width="47" height="62" filterUnits="userSpaceOnUse">
      <feOffset dy="3" input="SourceAlpha"/>
      <feGaussianBlur stdDeviation="3" result="blur-2"/>
      <feFlood flood-opacity="0.161"/>
      <feComposite operator="in" in2="blur-2"/>
      <feComposite in="SourceGraphic"/>
    </filter>
  </defs>
  <g id="Groupe_120" data-name="Groupe 120" transform="translate(4565.5 -3252)">
    <g transform="matrix(1, 0, 0, 1, -4565.5, 3252)" filter="url(#Tracé_157)">
      <g id="Tracé_157-2" data-name="Tracé 157" transform="translate(0 3)" fill="url(#radial-gradient)">
        <path d="M 48 48.5 L 2 48.5 C 1.724300026893616 48.5 1.5 48.27569961547852 1.5 48 L 1.5 2 C 1.5 1.724300026893616 1.724300026893616 1.5 2 1.5 L 48 1.5 C 48.27569961547852 1.5 48.5 1.724300026893616 48.5 2 L 48.5 39.52447891235352 L 48.5 48 C 48.5 48.27569961547852 48.27569961547852 48.5 48 48.5 Z" stroke="none"/>
        <path d="M 3 3 L 3 47 L 47 47 L 47 3 L 3 3 M 2 0 L 48 0 C 49.10456848144531 0 50 0.8954315185546875 50 2 L 50 48 C 50 49.10456848144531 49.10456848144531 50 48 50 L 2 50 C 0.8954315185546875 50 0 49.10456848144531 0 48 L 0 2 C 0 0.8954315185546875 0.8954315185546875 0 2 0 Z" stroke="none" fill="#fff"/>
      </g>
    </g>
    <g transform="matrix(1, 0, 0, 1, -4565.5, 3252)" filter="url(#D)">
      <text id="D-2" data-name="D" transform="translate(10.5 42)" fill="#fff" font-size="40" font-family="ArialMT, Arial"><tspan x="0" y="0">D</tspan></text>
    </g>
  </g>
</svg>
